<?xml version="1.0" encoding="utf-8"?>
<!-- Generator: Adobe Illustrator 25.2.0, SVG Export Plug-In . SVG Version: 6.00 Build 0)  -->
<svg version="1.1" id="Capa_1" xmlns="http://www.w3.org/2000/svg" xmlns:xlink="http://www.w3.org/1999/xlink" x="0px" y="0px"
	 viewBox="0 0 214.56 83.27" style="enable-background:new 0 0 214.56 83.27;" xml:space="preserve">
<style type="text/css">
	.st0{fill:#14BEAF;}
	.st1{fill:#0F8C81;}
	.st2{fill:#FFA500;}
	.st3{fill:url(#SVGID_1_);}
</style>
<g>
	<path class="st0" d="M30.22,0.05c0,0.02,0,0.04,0,0.06c0.01,1.44,0.01,13.45,0.01,13.45c-5.75,0-9.97,1.55-12.66,4.64
		c-2.69,3.09-4.03,6.71-4.03,10.85v23.74H0V1.22h13.54c0,0,0,5.39,0,5.4C17.1-0.98,30.22,0.05,30.22,0.05z"/>
	<path class="st0" d="M61.71,0.1c6.74,0,12.41,2.27,17.02,6.82c4.6,4.54,6.91,11.05,6.91,19.52c0,1.85-0.06,3.28-0.19,4.27H48.54
		c0.62,3.4,2.12,6.11,4.5,8.11c2.38,2.01,5.21,3.01,8.49,3.01c4.88,0,8.59-2.07,11.13-6.21l11.59,5.84
		c-2.35,3.89-5.5,6.95-9.46,9.18c-3.96,2.23-8.38,3.34-13.26,3.34c-7.54,0-13.85-2.53-18.92-7.6C37.53,41.31,35,34.85,35,27
		c0-7.85,2.56-14.3,7.7-19.34C47.83,2.62,54.16,0.1,61.71,0.1z M61.52,12.16c-2.66,0-5.07,0.73-7.23,2.18
		c-2.16,1.45-3.77,3.45-4.82,5.98h22.63c0-1.92-0.82-3.76-2.46-5.52C68,13.04,65.29,12.16,61.52,12.16z"/>
	<path class="st0" d="M88.16,1.22h13.54l10.57,31.44l10.48-31.44h13.54l-17.34,51.56h-13.54L88.16,1.22z"/>
	<path class="st0" d="M178.42,1.55c0,0.01,0,0.01,0,0.02c0,5.25,0,10.5,0,15.75c0,4.21-0.06,8.63-1.15,12.73
		c-0.5,1.86-1.29,3.67-2.53,5.15c-2.64,3.15-7.53,4.85-11.48,3.46c-2.46-0.87-4.15-2.93-5.04-5.33c-0.95-2.59-0.85-5.23-0.85-7.94
		c0-1.22,0-2.44,0-3.67c0-1.4,0-3.07,0-4.48c0-1.45,0-2.91,0-4.36c0-1.38,0-2.49,0-3.88c0-1.19,0-2.37,0-3.56c0-0.86,0-1.73,0-2.59
		c0-0.42,0-0.83,0-1.25c0-0.02,0-0.04,0-0.06h-13.54v30.57v0.37c0,5.69,1.4,12.83,5.38,16.41c3.69,3.32,8,5.15,12.7,5.15
		c6.11,0,11.96-1.71,16.51-5.87c0,0,0,4.94,0,4.94h13.54V1.55H178.42z"/>
	<g>
		<polygon class="st1" points="106.93,65.57 105.43,65.57 105.43,83.02 108.67,83.02 108.67,75.86 115.93,75.86 115.93,72.92 
			108.67,72.92 108.67,68.56 117,68.56 117,65.57 108.67,65.57 		"/>
		<path class="st1" d="M140.08,67.84c-0.78-0.81-1.7-1.45-2.77-1.89c-1.06-0.45-2.23-0.67-3.49-0.67c-1.25,0-2.4,0.22-3.47,0.67
			c-1.06,0.45-1.99,1.08-2.78,1.88c-0.79,0.81-1.4,1.76-1.83,2.85c-0.43,1.1-0.65,2.29-0.65,3.59c0,1.3,0.22,2.49,0.65,3.59
			c0.43,1.1,1.04,2.05,1.83,2.86c0.79,0.81,1.72,1.43,2.78,1.88c1.06,0.45,2.22,0.67,3.47,0.67c1.26,0,2.43-0.22,3.49-0.67
			c1.06-0.45,1.99-1.08,2.77-1.89c0.78-0.81,1.39-1.77,1.82-2.87c0.43-1.1,0.65-2.29,0.65-3.57c0-1.3-0.22-2.49-0.65-3.58
			C141.47,69.6,140.86,68.65,140.08,67.84z M138.85,76.61c-0.27,0.71-0.65,1.34-1.13,1.88c-0.48,0.54-1.05,0.96-1.71,1.25
			c-0.66,0.29-1.38,0.44-2.18,0.44c-0.78,0-1.5-0.15-2.17-0.44c-0.67-0.29-1.24-0.7-1.72-1.23c-0.48-0.53-0.86-1.16-1.12-1.88
			c-0.27-0.72-0.4-1.51-0.4-2.36c0-0.86,0.13-1.65,0.4-2.37c0.27-0.71,0.64-1.34,1.12-1.87c0.48-0.53,1.06-0.94,1.72-1.23
			c0.66-0.29,1.39-0.44,2.17-0.44c0.8,0,1.52,0.15,2.18,0.44c0.66,0.29,1.23,0.71,1.71,1.25c0.48,0.54,0.86,1.17,1.13,1.88
			c0.27,0.72,0.41,1.5,0.41,2.34C139.26,75.12,139.12,75.9,138.85,76.61z"/>
		<path class="st1" d="M165.78,67.84c-0.78-0.81-1.7-1.45-2.77-1.89c-1.06-0.45-2.23-0.67-3.49-0.67c-1.25,0-2.4,0.22-3.47,0.67
			c-1.06,0.45-1.99,1.08-2.78,1.88c-0.79,0.81-1.4,1.76-1.83,2.85c-0.43,1.1-0.65,2.29-0.65,3.59c0,1.3,0.22,2.49,0.65,3.59
			c0.43,1.1,1.04,2.05,1.83,2.86c0.79,0.81,1.72,1.43,2.78,1.88c1.06,0.45,2.22,0.67,3.47,0.67c1.26,0,2.43-0.22,3.49-0.67
			c1.06-0.45,1.99-1.08,2.77-1.89c0.78-0.81,1.39-1.77,1.82-2.87c0.43-1.1,0.65-2.29,0.65-3.57c0-1.3-0.22-2.49-0.65-3.58
			C167.17,69.6,166.56,68.65,165.78,67.84z M164.55,76.61c-0.27,0.71-0.65,1.34-1.13,1.88c-0.48,0.54-1.05,0.96-1.71,1.25
			c-0.66,0.29-1.38,0.44-2.18,0.44c-0.78,0-1.5-0.15-2.17-0.44c-0.67-0.29-1.24-0.7-1.72-1.23c-0.48-0.53-0.86-1.16-1.12-1.88
			c-0.27-0.72-0.4-1.51-0.4-2.36c0-0.86,0.13-1.65,0.4-2.37c0.27-0.71,0.64-1.34,1.12-1.87c0.48-0.53,1.06-0.94,1.72-1.23
			c0.66-0.29,1.39-0.44,2.17-0.44c0.8,0,1.52,0.15,2.18,0.44c0.66,0.29,1.23,0.71,1.71,1.25c0.48,0.54,0.86,1.17,1.13,1.88
			c0.27,0.72,0.41,1.5,0.41,2.34C164.96,75.12,164.82,75.9,164.55,76.61z"/>
		<path class="st1" d="M190.77,67.98c-0.74-0.78-1.62-1.38-2.64-1.8c-1.02-0.42-2.17-0.62-3.43-0.62h-7.01v17.45h7.01
			c1.26,0,2.41-0.21,3.44-0.62c1.03-0.42,1.91-1.01,2.64-1.78c0.73-0.77,1.29-1.7,1.68-2.77c0.39-1.07,0.59-2.26,0.59-3.55
			c0-1.3-0.2-2.48-0.59-3.54C192.07,69.69,191.51,68.77,190.77,67.98z M189.41,76.67c-0.23,0.71-0.57,1.31-1.02,1.81
			s-0.99,0.88-1.63,1.15c-0.64,0.27-1.37,0.4-2.18,0.4h-3.64V68.56h3.64c0.81,0,1.54,0.13,2.17,0.4c0.63,0.27,1.18,0.65,1.63,1.15
			c0.46,0.5,0.8,1.1,1.03,1.81c0.23,0.71,0.35,1.5,0.35,2.38C189.76,75.17,189.64,75.97,189.41,76.67z"/>
		<path class="st1" d="M214.16,75.95c-0.27-0.54-0.66-1.02-1.17-1.45c-0.52-0.42-1.14-0.79-1.87-1.1c-0.73-0.31-1.55-0.55-2.47-0.74
			c-0.55-0.12-1.04-0.25-1.47-0.4c-0.43-0.15-0.79-0.32-1.06-0.52c-0.27-0.2-0.49-0.43-0.64-0.69c-0.15-0.26-0.22-0.55-0.22-0.89
			c0-0.43,0.12-0.8,0.37-1.11c0.25-0.31,0.59-0.54,1.03-0.71c0.44-0.17,0.96-0.25,1.56-0.25c0.53,0,1.04,0.09,1.52,0.26
			c0.48,0.17,0.93,0.43,1.35,0.77c0.42,0.34,0.79,0.77,1.12,1.28l2.14-2.12c-0.38-0.65-0.87-1.2-1.46-1.66
			c-0.59-0.46-1.27-0.8-2.04-1.03c-0.77-0.23-1.65-0.35-2.63-0.35c-0.86,0-1.67,0.12-2.42,0.37c-0.75,0.25-1.4,0.6-1.97,1.05
			c-0.57,0.45-1.01,0.98-1.33,1.6c-0.32,0.62-0.49,1.29-0.49,2.02c0,0.73,0.11,1.38,0.32,1.96c0.22,0.57,0.56,1.09,1.02,1.55
			c0.46,0.46,1.04,0.84,1.72,1.15c0.68,0.31,1.48,0.55,2.39,0.74c0.48,0.1,0.92,0.21,1.32,0.32s0.76,0.26,1.07,0.42
			c0.32,0.17,0.58,0.35,0.8,0.54c0.22,0.19,0.38,0.41,0.49,0.65c0.11,0.24,0.16,0.5,0.16,0.79c0,0.4-0.13,0.75-0.4,1.06
			c-0.27,0.31-0.63,0.55-1.1,0.72c-0.47,0.17-0.98,0.26-1.55,0.26c-0.98,0-1.86-0.22-2.64-0.65c-0.78-0.43-1.58-1.21-2.39-2.34
			l-2.12,2.39c0.53,0.73,1.14,1.35,1.82,1.87c0.68,0.52,1.45,0.9,2.29,1.16c0.85,0.26,1.78,0.39,2.79,0.39
			c1.31,0,2.46-0.22,3.44-0.66c0.98-0.44,1.74-1.07,2.28-1.89c0.54-0.82,0.81-1.81,0.81-2.95
			C214.56,77.09,214.43,76.49,214.16,75.95z"/>
	</g>
	<g>
		<circle class="st2" cx="206.99" cy="45.67" r="7.57"/>
	</g>
	<linearGradient id="SVGID_1_" gradientUnits="userSpaceOnUse" x1="59.7223" y1="43.2029" x2="59.7223" y2="6.6204">
		<stop  offset="0" style="stop-color:#14BEAF"/>
		<stop  offset="0.5878" style="stop-color:#0B6E66"/>
	</linearGradient>
	<path class="st3" d="M72.65,35.62c-2.54,4.14-6.25,6.21-11.13,6.21c-3.28,0-6.11-1-8.49-3.01c-2.38-2.01-3.88-4.71-4.5-8.11H35.2
		c0.69,6.2,3.15,11.43,7.4,15.67c5.07,5.07,11.37,7.6,18.92,7.6c4.88,0,9.3-1.11,13.26-3.34c3.96-2.23,7.11-5.29,9.46-9.18
		L72.65,35.62z"/>
</g>
</svg>
