<?xml version="1.0" encoding="utf-8"?>
<!-- Generator: Adobe Illustrator 25.2.0, SVG Export Plug-In . SVG Version: 6.00 Build 0)  -->
<svg version="1.1" xmlns="http://www.w3.org/2000/svg" xmlns:xlink="http://www.w3.org/1999/xlink" x="0px" y="0px"
	 viewBox="0 0 1080 514" style="enable-background:new 0 0 1080 514;" xml:space="preserve">
<style type="text/css">
	.st0{fill:#FFA500;}
	.st1{fill:#D97F00;}
	.st2{fill:#14BEAF;}
	.st3{fill:url(#SVGID_1_);}
</style>
<g id="Paleta_Color">
</g>
<g id="Negro">
</g>
<g id="Negativo_x5F_Azul">
</g>
<g id="Negativo_x5F_Naranja">
</g>
<g id="Negativo">
</g>
<g id="Color_x5F_Azul">
</g>
<g id="Color_x5F_Naranja">
	<g>
		<g>
			<path class="st0" d="M257.72,104.65c0,0.06,0,0.13,0,0.21c0.02,5.29,0.05,49.26,0.03,49.26c-21.06,0-36.52,5.66-46.37,16.99
				c-9.85,11.33-14.78,24.58-14.78,39.75v86.97H147V108.94h49.6c0,0,0,19.76,0,19.78C209.63,100.88,257.72,104.65,257.72,104.65z"/>
		</g>
		<g>
			<path class="st0" d="M373.04,104.86c24.68,0,45.46,8.32,62.34,24.97c16.87,16.65,25.31,40.49,25.31,71.51
				c0,6.79-0.23,12.01-0.68,15.63H324.8c2.26,12.46,7.75,22.37,16.48,29.72c8.72,7.36,19.08,11.04,31.08,11.04
				c17.89,0,31.48-7.58,40.77-22.76l42.46,21.4c-8.61,14.27-20.16,25.48-34.65,33.63c-14.5,8.15-30.69,12.23-48.58,12.23
				c-27.63,0-50.73-9.28-69.3-27.86c-18.57-18.57-27.86-42.24-27.86-71c0-28.76,9.4-52.37,28.2-70.83
				C322.2,114.09,345.41,104.86,373.04,104.86z M372.37,149.03c-9.74,0-18.57,2.66-26.5,7.98c-7.93,5.32-13.82,12.63-17.67,21.91
				h82.89c0-7.02-3-13.76-9-20.21C396.09,152.25,386.18,149.03,372.37,149.03z"/>
		</g>
		<g>
			<path class="st0" d="M469.96,108.94h49.6l38.73,115.16l38.39-115.16h49.6l-63.53,188.88h-49.6L469.96,108.94z"/>
		</g>
		<g>
			<path class="st0" d="M800.6,110.17c0,0.03,0,0.05,0,0.08c0,19.23,0,38.46,0,57.7c0,15.43-0.2,31.62-4.22,46.62
				c-1.83,6.83-4.74,13.46-9.28,18.87c-9.67,11.53-27.57,17.77-42.06,12.67c-9.02-3.18-15.22-10.74-18.46-19.54
				c-3.5-9.49-3.1-19.16-3.1-29.09c0-4.48,0-8.95,0-13.43c0-5.13,0-11.26,0-16.4c0-5.33,0-10.66,0-15.99c0-5.07,0-9.13,0-14.2
				c0-4.34,0-8.69,0-13.03c0-3.16,0-6.33,0-9.49c0-1.52,0-3.05,0-4.57c0-0.07,0-0.14,0-0.21h-49.6v111.98v1.36
				c0,20.84,5.12,46.99,19.7,60.11c13.51,12.16,29.31,18.85,46.52,18.85c22.37,0,43.82-6.27,60.49-21.5c0,0,0,18.08,0,18.08h49.6
				V110.17H800.6z"/>
		</g>
		<g>
			<g>
				<polygon class="st1" points="538.7,344.67 533.22,344.67 533.22,408.61 545.1,408.61 545.1,382.39 571.68,382.39 571.68,371.61 
					545.1,371.61 545.1,355.63 575.6,355.63 575.6,344.67 545.1,344.67 				"/>
			</g>
			<g>
				<path class="st1" d="M660.16,352.98c-2.86-2.98-6.24-5.3-10.14-6.94c-3.9-1.64-8.16-2.47-12.79-2.47c-4.57,0-8.8,0.82-12.7,2.47
					c-3.9,1.64-7.29,3.94-10.18,6.9c-2.89,2.95-5.13,6.44-6.71,10.46c-1.58,4.02-2.38,8.4-2.38,13.15c0,4.75,0.79,9.13,2.38,13.15
					c1.58,4.02,3.82,7.51,6.71,10.46c2.89,2.95,6.29,5.25,10.18,6.9c3.9,1.64,8.13,2.47,12.7,2.47c4.63,0,8.89-0.82,12.79-2.47
					c3.9-1.64,7.28-3.96,10.14-6.94c2.86-2.98,5.08-6.48,6.67-10.5c1.58-4.02,2.37-8.37,2.37-13.06c0-4.75-0.79-9.12-2.37-13.11
					C665.24,359.45,663.02,355.97,660.16,352.98z M655.64,385.13c-1,2.62-2.39,4.92-4.16,6.9c-1.77,1.98-3.85,3.5-6.26,4.57
					s-5.07,1.6-7.99,1.6c-2.86,0-5.51-0.53-7.95-1.6c-2.44-1.07-4.54-2.57-6.3-4.52c-1.77-1.95-3.14-4.25-4.11-6.9
					c-0.98-2.65-1.46-5.53-1.46-8.63c0-3.17,0.49-6.06,1.46-8.68c0.97-2.62,2.34-4.9,4.11-6.85c1.77-1.95,3.87-3.45,6.3-4.52
					c2.43-1.06,5.08-1.6,7.95-1.6c2.92,0,5.59,0.53,7.99,1.6c2.41,1.07,4.49,2.59,6.26,4.57c1.77,1.98,3.15,4.28,4.16,6.9
					c1.01,2.62,1.51,5.48,1.51,8.59C657.14,379.65,656.64,382.51,655.64,385.13z"/>
			</g>
			<g>
				<path class="st1" d="M754.3,352.98c-2.86-2.98-6.24-5.3-10.14-6.94c-3.9-1.64-8.16-2.47-12.79-2.47c-4.57,0-8.8,0.82-12.7,2.47
					c-3.9,1.64-7.29,3.94-10.18,6.9c-2.89,2.95-5.13,6.44-6.71,10.46c-1.58,4.02-2.38,8.4-2.38,13.15c0,4.75,0.79,9.13,2.38,13.15
					c1.58,4.02,3.82,7.51,6.71,10.46c2.89,2.95,6.29,5.25,10.18,6.9c3.9,1.64,8.13,2.47,12.7,2.47c4.63,0,8.89-0.82,12.79-2.47
					c3.9-1.64,7.28-3.96,10.14-6.94c2.86-2.98,5.08-6.48,6.67-10.5c1.58-4.02,2.37-8.37,2.37-13.06c0-4.75-0.79-9.12-2.37-13.11
					C759.39,359.45,757.16,355.97,754.3,352.98z M749.78,385.13c-1,2.62-2.39,4.92-4.16,6.9c-1.77,1.98-3.85,3.5-6.26,4.57
					s-5.07,1.6-7.99,1.6c-2.86,0-5.51-0.53-7.95-1.6c-2.44-1.07-4.54-2.57-6.3-4.52c-1.77-1.95-3.14-4.25-4.11-6.9
					c-0.98-2.65-1.46-5.53-1.46-8.63c0-3.17,0.49-6.06,1.46-8.68c0.97-2.62,2.34-4.9,4.11-6.85c1.77-1.95,3.87-3.45,6.3-4.52
					c2.43-1.06,5.08-1.6,7.95-1.6c2.92,0,5.59,0.53,7.99,1.6c2.41,1.07,4.49,2.59,6.26,4.57c1.77,1.98,3.15,4.28,4.16,6.9
					c1.01,2.62,1.51,5.48,1.51,8.59C751.29,379.65,750.79,382.51,749.78,385.13z"/>
			</g>
			<g>
				<path class="st1" d="M845.84,353.53c-2.71-2.86-5.94-5.05-9.68-6.58c-3.74-1.52-7.93-2.28-12.56-2.28h-25.67v63.94h25.67
					c4.63,0,8.83-0.76,12.6-2.28c3.78-1.52,7-3.7,9.68-6.53c2.68-2.83,4.73-6.21,6.17-10.14c1.43-3.93,2.15-8.27,2.15-13.02
					s-0.72-9.07-2.15-12.97C850.62,359.77,848.55,356.39,845.84,353.53z M840.86,385.36c-0.85,2.59-2.1,4.8-3.74,6.62
					c-1.64,1.83-3.64,3.23-5.98,4.2c-2.34,0.98-5.01,1.46-7.99,1.46h-13.33v-42.02h13.33c2.98,0,5.63,0.49,7.95,1.46
					c2.31,0.98,4.31,2.37,5.98,4.2c1.67,1.83,2.94,4.03,3.79,6.62c0.85,2.59,1.28,5.5,1.28,8.72
					C842.14,379.87,841.72,382.77,840.86,385.36z"/>
			</g>
			<g>
				<path class="st1" d="M931.54,382.71c-0.98-1.98-2.41-3.74-4.29-5.3c-1.89-1.55-4.17-2.89-6.85-4.02
					c-2.68-1.13-5.7-2.02-9.04-2.69c-2.01-0.43-3.81-0.91-5.39-1.46c-1.59-0.55-2.88-1.19-3.88-1.92c-1.01-0.73-1.78-1.57-2.33-2.51
					c-0.55-0.94-0.82-2.02-0.82-3.24c0-1.58,0.46-2.94,1.37-4.06c0.91-1.13,2.18-1.99,3.79-2.6c1.61-0.61,3.52-0.91,5.71-0.91
					c1.95,0,3.8,0.32,5.57,0.96c1.77,0.64,3.41,1.58,4.93,2.83c1.52,1.25,2.89,2.82,4.11,4.7l7.85-7.76
					c-1.4-2.38-3.18-4.4-5.34-6.07c-2.16-1.67-4.66-2.94-7.49-3.79c-2.83-0.85-6.04-1.28-9.64-1.28c-3.17,0-6.12,0.46-8.86,1.37
					c-2.74,0.91-5.15,2.19-7.22,3.84c-2.07,1.64-3.7,3.59-4.89,5.85c-1.19,2.25-1.78,4.72-1.78,7.4s0.4,5.07,1.19,7.17
					c0.79,2.1,2.04,3.99,3.74,5.66c1.7,1.68,3.8,3.08,6.3,4.2c2.5,1.13,5.42,2.03,8.77,2.69c1.77,0.37,3.38,0.76,4.84,1.19
					s2.77,0.94,3.93,1.55c1.16,0.61,2.13,1.27,2.92,1.96c0.79,0.7,1.38,1.49,1.78,2.37c0.4,0.88,0.59,1.84,0.59,2.88
					c0,1.46-0.49,2.76-1.46,3.88c-0.97,1.13-2.31,2.01-4.02,2.65c-1.71,0.64-3.59,0.96-5.66,0.96c-3.59,0-6.82-0.79-9.68-2.38
					c-2.86-1.58-5.79-4.44-8.77-8.59l-7.76,8.77c1.95,2.68,4.17,4.96,6.67,6.85c2.5,1.89,5.3,3.3,8.4,4.25
					c3.1,0.94,6.51,1.42,10.23,1.42c4.81,0,9.01-0.81,12.6-2.42c3.59-1.61,6.38-3.93,8.36-6.94c1.98-3.01,2.97-6.62,2.97-10.82
					C933,386.9,932.51,384.69,931.54,382.71z"/>
			</g>
		</g>
		<circle class="st2" cx="905.27" cy="271.78" r="27.73"/>
		<linearGradient id="SVGID_1_" gradientUnits="userSpaceOnUse" x1="365.7812" y1="262.7451" x2="365.7812" y2="128.7321">
			<stop  offset="0" style="stop-color:#FFA500"/>
			<stop  offset="0.5878" style="stop-color:#D45800"/>
		</linearGradient>
		<path class="st3" d="M413.13,234.97c-9.29,15.18-22.88,22.76-40.77,22.76c-12.01,0-22.37-3.68-31.08-11.04
			c-8.72-7.36-14.22-17.27-16.48-29.72h-48.84c2.52,22.71,11.54,41.86,27.1,57.41c18.57,18.57,41.67,27.86,69.3,27.86
			c17.89,0,34.08-4.08,48.58-12.23c14.49-8.15,26.04-19.36,34.65-33.63L413.13,234.97z"/>
	</g>
</g>
</svg>
