<?xml version="1.0" encoding="utf-8"?>
<!-- Generator: Adobe Illustrator 25.2.0, SVG Export Plug-In . SVG Version: 6.00 Build 0)  -->
<svg version="1.1" id="Capa_1" xmlns="http://www.w3.org/2000/svg" xmlns:xlink="http://www.w3.org/1999/xlink" x="0px" y="0px"
	 viewBox="0 0 151 58.6" style="enable-background:new 0 0 151 58.6;" xml:space="preserve">
<style type="text/css">
	.st0{display:none;}
	.st1{display:inline;}
	.st2{fill:#BFBFBF;}
	.st3{fill:#FFFFFF;}
	.st4{fill:#14BAAB;}
</style>
<g class="st0">
	<g class="st1">
		<g>
			<g>
				<path class="st2" d="M-55.28,1316.93c-0.31-0.42-7.68-10.36-17.09-10.36s-16.78,9.94-17.09,10.36c-0.29,0.4-0.29,0.95,0,1.35
					c0.31,0.42,7.68,10.36,17.09,10.36s16.78-9.94,17.09-10.36C-54.99,1317.87-54.99,1317.33-55.28,1316.93z M-72.37,1326.35
					c-6.93,0-12.94-6.59-14.71-8.75c1.78-2.16,7.77-8.75,14.71-8.75c6.93,0,12.94,6.59,14.71,8.75
					C-59.43,1319.76-65.42,1326.35-72.37,1326.35z"/>
			</g>
		</g>
		<g>
			<g>
				<path class="st2" d="M-72.37,1310.75c-3.78,0-6.85,3.07-6.85,6.85s3.07,6.85,6.85,6.85s6.85-3.07,6.85-6.85
					S-68.59,1310.75-72.37,1310.75z M-72.37,1322.17c-2.52,0-4.57-2.05-4.57-4.57s2.05-4.57,4.57-4.57s4.57,2.05,4.57,4.57
					S-69.85,1322.17-72.37,1322.17z"/>
			</g>
		</g>
	</g>
</g>
<g>
	<g>
		<path class="st3" d="M21.27,0.03c0,0.01,0,0.03,0,0.04c0,1.02,0.01,9.46,0.01,9.46c-4.05,0-7.02,1.09-8.91,3.26
			c-1.89,2.18-2.84,4.72-2.84,7.64v16.71H0V0.86h9.53c0,0,0,3.8,0,3.8C12.03-0.69,21.27,0.03,21.27,0.03z"/>
	</g>
	<g>
		<path class="st3" d="M62.04,0.86h9.53l7.44,22.12l7.37-22.12h9.53l-12.2,36.29h-9.53L62.04,0.86z"/>
	</g>
	<g>
		<path class="st3" d="M125.56,1.09c0,0,0,0.01,0,0.02c0,3.69,0,7.39,0,11.08c0,2.97-0.04,6.07-0.81,8.96
			c-0.35,1.31-0.91,2.59-1.78,3.63c-1.86,2.21-5.3,3.41-8.08,2.43c-1.73-0.61-2.92-2.06-3.55-3.75c-0.67-1.82-0.6-3.68-0.6-5.59
			c0-0.86,0-1.72,0-2.58c0-0.99,0-2.16,0-3.15c0-1.02,0-2.05,0-3.07c0-0.97,0-1.75,0-2.73c0-0.83,0-1.67,0-2.5c0-0.61,0-1.22,0-1.82
			c0-0.29,0-0.59,0-0.88c0-0.01,0-0.03,0-0.04h-9.53v21.51v0.26c0,4,0.98,9.03,3.79,11.55c2.6,2.34,5.63,3.62,8.94,3.62
			c4.3,0,8.42-1.2,11.62-4.13c0,0,0,3.47,0,3.47h9.53V1.09H125.56z"/>
	</g>
	<g>
		<g>
			<polygon class="st3" points="75.25,46.14 74.2,46.14 74.2,58.43 76.48,58.43 76.48,53.39 81.59,53.39 81.59,51.32 76.48,51.32 
				76.48,48.25 82.34,48.25 82.34,46.14 76.48,46.14 			"/>
		</g>
		<g>
			<path class="st3" d="M98.58,47.74c-0.55-0.57-1.2-1.02-1.95-1.33c-0.75-0.32-1.57-0.47-2.46-0.47c-0.88,0-1.69,0.16-2.44,0.47
				c-0.75,0.32-1.4,0.76-1.96,1.32c-0.56,0.57-0.99,1.24-1.29,2.01c-0.3,0.77-0.46,1.61-0.46,2.53c0,0.91,0.15,1.75,0.46,2.53
				c0.3,0.77,0.73,1.44,1.29,2.01c0.56,0.57,1.21,1.01,1.96,1.32c0.75,0.32,1.56,0.47,2.44,0.47c0.89,0,1.71-0.16,2.46-0.47
				c0.75-0.32,1.4-0.76,1.95-1.33c0.55-0.57,0.98-1.25,1.28-2.02c0.3-0.77,0.46-1.61,0.46-2.51c0-0.91-0.15-1.75-0.46-2.52
				C99.56,48.98,99.13,48.31,98.58,47.74z M97.71,53.92c-0.19,0.5-0.46,0.94-0.8,1.32c-0.34,0.38-0.74,0.67-1.2,0.88
				c-0.46,0.2-0.97,0.31-1.54,0.31c-0.55,0-1.06-0.1-1.53-0.31c-0.47-0.2-0.87-0.49-1.21-0.87c-0.34-0.37-0.6-0.82-0.79-1.32
				c-0.19-0.51-0.28-1.06-0.28-1.66c0-0.61,0.09-1.16,0.28-1.67c0.19-0.5,0.45-0.94,0.79-1.32c0.34-0.37,0.74-0.66,1.21-0.87
				c0.47-0.2,0.98-0.31,1.53-0.31c0.56,0,1.07,0.1,1.54,0.31c0.46,0.2,0.86,0.5,1.2,0.88c0.34,0.38,0.61,0.82,0.8,1.32
				c0.19,0.5,0.29,1.05,0.29,1.65S97.91,53.41,97.71,53.92z"/>
		</g>
		<g>
			<path class="st3" d="M116.67,47.74c-0.55-0.57-1.2-1.02-1.95-1.33c-0.75-0.32-1.57-0.47-2.46-0.47c-0.88,0-1.69,0.16-2.44,0.47
				c-0.75,0.32-1.4,0.76-1.96,1.32c-0.56,0.57-0.99,1.24-1.29,2.01c-0.3,0.77-0.46,1.61-0.46,2.53c0,0.91,0.15,1.75,0.46,2.53
				c0.3,0.77,0.73,1.44,1.29,2.01c0.56,0.57,1.21,1.01,1.96,1.32c0.75,0.32,1.56,0.47,2.44,0.47c0.89,0,1.71-0.16,2.46-0.47
				c0.75-0.32,1.4-0.76,1.95-1.33c0.55-0.57,0.98-1.25,1.28-2.02c0.3-0.77,0.46-1.61,0.46-2.51c0-0.91-0.15-1.75-0.46-2.52
				C117.65,48.98,117.22,48.31,116.67,47.74z M115.8,53.92c-0.19,0.5-0.46,0.94-0.8,1.32c-0.34,0.38-0.74,0.67-1.2,0.88
				c-0.46,0.2-0.97,0.31-1.54,0.31c-0.55,0-1.06-0.1-1.53-0.31c-0.47-0.2-0.87-0.49-1.21-0.87c-0.34-0.37-0.6-0.82-0.79-1.32
				c-0.19-0.51-0.28-1.06-0.28-1.66c0-0.61,0.09-1.16,0.28-1.67c0.19-0.5,0.45-0.94,0.79-1.32c0.34-0.37,0.74-0.66,1.21-0.87
				c0.47-0.2,0.98-0.31,1.53-0.31c0.56,0,1.07,0.1,1.54,0.31c0.46,0.2,0.86,0.5,1.2,0.88c0.34,0.38,0.61,0.82,0.8,1.32
				c0.19,0.5,0.29,1.05,0.29,1.65S115.99,53.41,115.8,53.92z"/>
		</g>
		<g>
			<path class="st3" d="M134.26,47.85c-0.52-0.55-1.14-0.97-1.86-1.26c-0.72-0.29-1.52-0.44-2.41-0.44h-4.93v12.28h4.93
				c0.89,0,1.7-0.15,2.42-0.44c0.73-0.29,1.35-0.71,1.86-1.25c0.51-0.54,0.91-1.19,1.18-1.95c0.27-0.75,0.41-1.59,0.41-2.5
				c0-0.91-0.14-1.74-0.41-2.49C135.17,49.04,134.78,48.4,134.26,47.85z M133.3,53.96c-0.16,0.5-0.4,0.92-0.72,1.27
				c-0.32,0.35-0.7,0.62-1.15,0.81c-0.45,0.19-0.96,0.28-1.54,0.28h-2.56v-8.07h2.56c0.57,0,1.08,0.09,1.53,0.28
				c0.44,0.19,0.83,0.46,1.15,0.81c0.32,0.35,0.56,0.78,0.73,1.27c0.16,0.5,0.25,1.06,0.25,1.68
				C133.55,52.91,133.46,53.46,133.3,53.96z"/>
		</g>
		<g>
			<path class="st3" d="M150.72,53.45c-0.19-0.38-0.46-0.72-0.82-1.02c-0.36-0.3-0.8-0.56-1.32-0.77c-0.51-0.22-1.09-0.39-1.74-0.52
				c-0.39-0.08-0.73-0.18-1.04-0.28c-0.3-0.11-0.55-0.23-0.75-0.37c-0.19-0.14-0.34-0.3-0.45-0.48c-0.11-0.18-0.16-0.39-0.16-0.62
				c0-0.3,0.09-0.56,0.26-0.78c0.18-0.22,0.42-0.38,0.73-0.5c0.31-0.12,0.68-0.18,1.1-0.18c0.37,0,0.73,0.06,1.07,0.18
				c0.34,0.12,0.66,0.3,0.95,0.54c0.29,0.24,0.56,0.54,0.79,0.9l1.51-1.49c-0.27-0.46-0.61-0.85-1.03-1.17
				c-0.42-0.32-0.9-0.56-1.44-0.73c-0.54-0.16-1.16-0.25-1.85-0.25c-0.61,0-1.18,0.09-1.7,0.26c-0.53,0.18-0.99,0.42-1.39,0.74
				c-0.4,0.32-0.71,0.69-0.94,1.12c-0.23,0.43-0.34,0.91-0.34,1.42c0,0.51,0.08,0.97,0.23,1.38c0.15,0.4,0.39,0.77,0.72,1.09
				c0.33,0.32,0.73,0.59,1.21,0.81c0.48,0.22,1.04,0.39,1.68,0.52c0.34,0.07,0.65,0.15,0.93,0.23c0.28,0.08,0.53,0.18,0.75,0.3
				c0.22,0.12,0.41,0.24,0.56,0.38c0.15,0.13,0.27,0.29,0.34,0.46c0.08,0.17,0.11,0.35,0.11,0.55c0,0.28-0.09,0.53-0.28,0.75
				c-0.19,0.22-0.44,0.39-0.77,0.51c-0.33,0.12-0.69,0.18-1.09,0.18c-0.69,0-1.31-0.15-1.86-0.46c-0.55-0.3-1.11-0.85-1.68-1.65
				l-1.49,1.68c0.37,0.51,0.8,0.95,1.28,1.32c0.48,0.36,1.02,0.63,1.61,0.82c0.6,0.18,1.25,0.27,1.97,0.27
				c0.92,0,1.73-0.16,2.42-0.47c0.69-0.31,1.23-0.75,1.61-1.33c0.38-0.58,0.57-1.27,0.57-2.08C151,54.26,150.91,53.83,150.72,53.45z
				"/>
		</g>
	</g>
	<circle class="st4" cx="145.67" cy="32.14" r="5.33"/>
	<g>
		<path class="st3" d="M25.81,26.13c0.02,0.05,0.04,0.1,0.06,0.16c0.07,0.19,0.14,0.38,0.22,0.56c0.03,0.07,0.06,0.14,0.09,0.22
			c0.07,0.17,0.15,0.35,0.23,0.52c0.04,0.08,0.08,0.16,0.11,0.24c0.08,0.17,0.16,0.33,0.25,0.49c0.04,0.07,0.07,0.13,0.11,0.2
			c0.15,0.27,0.31,0.55,0.47,0.81c0.08,0.12,0.15,0.24,0.23,0.37c0.07,0.11,0.15,0.22,0.22,0.33c0.09,0.13,0.18,0.26,0.27,0.38
			c0.07,0.1,0.15,0.2,0.22,0.3c0.1,0.13,0.2,0.26,0.31,0.39c0.07,0.09,0.15,0.18,0.22,0.27c0.12,0.14,0.24,0.29,0.37,0.43
			c0.06,0.07,0.13,0.15,0.19,0.22c0.19,0.21,0.39,0.42,0.6,0.63c3.57,3.57,8.01,5.35,13.31,5.35c3.44,0,6.55-0.78,9.33-2.35
			c0.35-0.2,0.69-0.4,1.02-0.61c0.99-0.64,1.9-1.37,2.73-2.18c1.11-1.08,2.08-2.3,2.9-3.67l-8.16-4.11
			c-0.89,1.46-1.99,2.55-3.3,3.28c-0.16,0.09-0.33,0.18-0.5,0.26c-0.51,0.24-1.05,0.43-1.61,0.56c-0.76,0.18-1.56,0.27-2.42,0.27
			c-0.58,0-1.13-0.04-1.67-0.13c-0.67-0.11-1.31-0.29-1.92-0.54c-0.61-0.25-1.19-0.57-1.74-0.95c-0.22-0.15-0.43-0.32-0.64-0.5
			c-1.04-0.88-1.84-1.95-2.41-3.21h-9.7C25.38,24.8,25.58,25.48,25.81,26.13z"/>
	</g>
	<g>
		<path class="st3" d="M34.16,21.61h25.98c0.09-0.7,0.13-1.7,0.13-3c0-5.96-1.62-10.54-4.86-13.74c-3.24-3.2-7.23-4.8-11.98-4.8
			c-5.31,0-9.77,1.77-13.38,5.32c-3.61,3.55-5.42,8.08-5.42,13.61c0,0.9,0.05,1.77,0.15,2.62L34.16,21.61
			C34.16,21.61,34.16,21.61,34.16,21.61z M38.2,10.09c1.52-1.02,3.22-1.53,5.09-1.53c2.65,0,4.56,0.62,5.71,1.86
			c1.15,1.24,1.73,2.53,1.73,3.88H34.81C35.55,12.52,36.68,11.11,38.2,10.09z"/>
	</g>
</g>
</svg>
