<?xml version="1.0" encoding="utf-8"?>
<!-- Generator: Adobe Illustrator 25.2.0, SVG Export Plug-In . SVG Version: 6.00 Build 0)  -->
<svg version="1.1" id="Capa_1" xmlns="http://www.w3.org/2000/svg" xmlns:xlink="http://www.w3.org/1999/xlink" x="0px" y="0px"
	 viewBox="0 0 113.89 89.15" style="enable-background:new 0 0 113.89 89.15;" xml:space="preserve">
<style type="text/css">
	.st0{fill:#62A99B;}
</style>
<g>
	<path class="st0" d="M39.12,60.95c-1.56,0.48-3.24,0.05-4.38-1.12c-0.19-0.19-0.36-0.4-0.51-0.63c-1.02-1.54-3.09-1.95-4.63-0.93
		c-1.53,1.02-1.95,3.09-0.93,4.63c0.38,0.57,0.81,1.11,1.29,1.6c2.11,2.16,4.94,3.32,7.86,3.32c1.08,0,2.18-0.16,3.25-0.49
		c1.76-0.54,2.75-2.41,2.21-4.17C42.75,61.39,40.88,60.4,39.12,60.95L39.12,60.95z M39.12,60.95"/>
	<path class="st0" d="M80.11,50.49c-1.54-1.02-3.61-0.6-4.63,0.93c-0.15,0.22-0.32,0.44-0.51,0.63c-1.14,1.17-2.82,1.6-4.38,1.11
		c-1.76-0.54-3.63,0.45-4.17,2.21c-0.54,1.76,0.45,3.63,2.21,4.17c1.07,0.33,2.17,0.49,3.26,0.49c2.91,0,5.75-1.16,7.86-3.32
		c0.48-0.49,0.91-1.03,1.29-1.6C82.07,53.58,81.65,51.51,80.11,50.49L80.11,50.49z M80.11,50.49"/>
	<path class="st0" d="M110.25,62.39c-1.56-1.94-3.55-3.5-5.78-4.56c0.18-0.98,0.27-1.98,0.27-3c0-3.53-1.1-6.87-3.1-9.63l3.66-6.34
		c3.6-6.23,2.83-13.8-1.34-19.16l8.43-5.73c0.95-0.65,1.5-1.73,1.46-2.88c-0.04-1.15-0.67-2.19-1.67-2.77L98.54,0.45
		c-0.99-0.57-2.22-0.6-3.23-0.06c-1.01,0.54-1.68,1.56-1.77,2.71l-0.74,10.17c-2.25-0.31-4.56-0.17-6.82,0.43
		c-4.44,1.19-8.15,4.03-10.44,7.99l-2.43,4.21c-0.08-0.01-0.15-0.02-0.22-0.02c-1.83-7.14-8.3-12.35-15.94-12.35
		S42.83,18.74,41,25.88c-3.51,0.24-6.88,1.59-9.6,3.91l-4.21-7.29c-1.95-3.37-6.08-4.71-9.59-3.26l-4.53-7.85
		c-0.92-1.6-2.96-2.14-4.56-1.22c-1.6,0.92-2.14,2.96-1.22,4.56l4.53,7.85c-3.01,2.31-3.92,6.56-1.97,9.94l5.47,9.48
		c-1.31,1.05-2.46,2.3-3.42,3.74c-2.4,3.62-3.26,7.96-2.5,12.12c-2.23,1.06-4.21,2.62-5.78,4.55C1.29,65.3,0,68.96,0,72.71
		c0,6.58,3.03,11.69,8.53,14.4c4.02,1.98,8.04,2.04,8.48,2.04h78.85c4.67,0,9.09-1.56,12.42-4.4c3.61-3.07,5.6-7.35,5.6-12.04
		C113.89,68.96,112.6,65.3,110.25,62.39L110.25,62.39z M99.82,8.89l4.43,2.56l-4.86,3.3L99.82,8.89z M81.33,25.02
		c1.39-2.42,3.66-4.15,6.38-4.88c2.72-0.73,5.55-0.36,7.97,1.03c5.02,2.9,6.74,9.34,3.85,14.35l-2.94,5.1
		c-2.69-1.58-5.72-2.35-8.8-2.25c-0.81-3.28-2.61-6.27-5.21-8.52c-0.9-0.77-1.87-1.44-2.89-2L81.33,25.02z M15.64,29.16
		c-0.28-0.48-0.11-1.11,0.37-1.39l4.02-2.32c0.48-0.28,1.11-0.11,1.39,0.37l5.64,9.77c-0.4,0.9-0.72,1.83-0.95,2.78
		c-0.17,0-0.33-0.01-0.5-0.01c-1.48,0-2.93,0.2-4.32,0.58L15.64,29.16z M95.87,82.48H17.02c-0.03,0-2.9-0.03-5.6-1.38
		c-3.19-1.6-4.75-4.34-4.75-8.39c0-4.59,3.12-8.51,7.58-9.54c0.96-0.22,1.77-0.85,2.22-1.73c0.45-0.88,0.49-1.91,0.11-2.81
		c-1.27-3.02-0.94-6.46,0.89-9.22c1.84-2.77,4.81-4.36,8.14-4.36c0.85,0,1.69,0.11,2.51,0.32c1,0.26,2.05,0.05,2.87-0.57
		c0.82-0.62,1.3-1.59,1.32-2.62c0.03-2.8,1.26-5.45,3.38-7.28c2.12-1.83,4.93-2.67,7.72-2.3c0.92,0.12,1.86-0.14,2.57-0.74
		c0.72-0.6,1.15-1.46,1.2-2.39c0.27-5.2,4.56-9.27,9.77-9.27c5.21,0,9.5,4.07,9.77,9.27c0.05,0.93,0.48,1.8,1.2,2.39
		c0.72,0.6,1.65,0.86,2.57,0.74c2.78-0.37,5.6,0.47,7.72,2.3c2.12,1.83,3.35,4.49,3.38,7.28c0.01,1.03,0.5,1.99,1.32,2.62
		c0.82,0.62,1.88,0.83,2.87,0.57c2.96-0.78,6.05-0.16,8.49,1.72c2.42,1.86,3.81,4.69,3.81,7.74c0,1.32-0.26,2.59-0.76,3.79
		c-0.38,0.91-0.34,1.94,0.11,2.81c0.45,0.88,1.26,1.51,2.22,1.73c4.46,1.03,7.58,4.95,7.58,9.54
		C107.21,79.05,101.37,82.48,95.87,82.48L95.87,82.48z M95.87,82.48"/>
</g>
</svg>
