<?xml version="1.0" encoding="utf-8"?>
<!-- Generator: Adobe Illustrator 25.2.0, SVG Export Plug-In . SVG Version: 6.00 Build 0)  -->
<svg version="1.1" id="Capa_1" xmlns="http://www.w3.org/2000/svg" xmlns:xlink="http://www.w3.org/1999/xlink" x="0px" y="0px"
	 viewBox="0 0 916.28 463" style="enable-background:new 0 0 916.28 463;" xml:space="preserve">
<style type="text/css">
	.st0{fill:#D4D4D4;}
	.st1{fill:#E4E4E4;}
	.st2{fill:#D6D6D6;}
	.st3{fill:#7B7B7B;}
	.st4{fill:#F2F2F2;}
	.st5{fill:#CCCCCC;}
</style>
<g>
	<ellipse class="st0" cx="667.08" cy="427.5" rx="167.2" ry="35.5"/>
	<g>
		<g>
			<path d="M812.56,381.05c1.33-3.38,2.13-6.7,2.62-9.52l-7.34,4.75l0.3-7.92c0.49-12.74-3.52-17.95-6.44-20.04
				c-0.04,1.91-0.14,3.82-0.21,5.73c-0.27,4.87-0.62,9.73-1.23,14.58c-0.15,1.21-0.28,2.43-0.46,3.64l-0.55,3.63l-0.28,1.81
				l-0.33,1.81c-0.22,1.21-0.43,2.42-0.69,3.62c-0.98,4.82-2.2,9.63-3.77,14.36c-0.3,0.91-0.62,1.82-0.95,2.72
				C802.27,397.17,808.76,390.74,812.56,381.05z"/>
			<path d="M760.88,228.62l-1.79-1.1c-0.62-0.34-1.22-0.69-1.85-1.02l-1.91-0.94l-2.14-1.01c-1.43-0.67-2.84-1.38-4.26-2.07
				c-1.41-0.72-2.82-1.42-4.21-2.15c-5.59-2.92-11.09-6-16.47-9.32c-5.38-3.32-10.66-6.82-15.73-10.66
				c-1.28-0.95-2.53-1.94-3.78-2.93c-0.63-0.49-1.24-1.02-1.86-1.52l-1.8-1.51c-2.29-1.93-4.64-3.77-7.07-5.47
				c-2.42-1.71-4.91-3.25-7.47-4.6c-2.55-1.36-5.18-2.46-7.84-3.26c-1.33-0.38-2.66-0.71-3.99-0.9c-0.67-0.12-1.33-0.16-1.99-0.23
				c-0.33-0.02-0.66-0.02-0.99-0.04l-0.49-0.02l-0.49,0.01c-1.31-0.01-2.58,0.19-3.83,0.43c-0.62,0.16-1.24,0.29-1.84,0.51
				c-0.3,0.11-0.61,0.18-0.9,0.31l-0.88,0.37c-2.35,1.03-4.5,2.61-6.44,4.49c-1.95,1.85-3.47,4.01-4.62,6.38
				c-2.26,4.75-2.75,10.39-1.88,15.96c0.87,5.58,2.92,11.1,5.79,16.14c1.42,2.56,3.08,5.01,4.84,7.39c0.87,1.2,1.81,2.35,2.75,3.52
				c0.97,1.14,1.93,2.29,2.95,3.39c4.02,4.47,8.46,8.64,13.03,12.74c2.29,2.04,4.62,4.07,6.96,6.1c2.31,2.01,4.66,3.96,7.04,5.87
				c2.38,1.92,4.81,3.75,7.27,5.54l7.34,5.41l7.37,5.48c2.47,1.86,4.97,3.7,7.46,5.78c-3.21-0.39-6.3-1.24-9.32-2.28
				c-3.02-1.05-5.92-2.37-8.73-3.85c-5.65-2.94-10.74-6.75-15.71-10.63c-2.48-1.95-4.92-3.94-7.31-5.98
				c-2.37-2.02-4.74-4.04-7.1-6.11c-3.84-3.38-7.64-6.86-11.27-10.59c-0.29,0.33-0.58,0.66-0.89,0.97
				c-4.67,4.73-11.7,7.05-21.39,7.05c-1.34,0-2.72-0.04-4.16-0.13c-2.65-0.16-5.13-0.57-7.41-1.2c-1.91,5.51-4.04,10.38-6.38,14.65
				c1.22,0.51,2.46,1.01,3.75,1.43c2.65,0.98,5.44,1.68,8.23,2.37c5.61,1.3,11.4,2.02,17.24,2.4c1.47,0.06,2.93,0.13,4.4,0.21
				c1.47,0.02,2.95-0.02,4.42-0.01l2.22,0c0.74,0,1.48-0.07,2.22-0.1c1.48-0.09,2.97-0.15,4.45-0.22l1.12-0.05l1.11-0.12
				c0.74-0.08,1.48-0.16,2.23-0.22c0.74-0.07,1.5-0.09,2.25-0.13c0.76-0.02,1.51-0.04,2.27-0.03c1.52-0.05,3.05-0.07,4.61,0.03
				c1.57,0.1,3.16,0.26,4.82,0.65c-1.31,1.04-2.7,1.85-4.12,2.61c-1.42,0.74-2.86,1.41-4.33,1.96c-2.97,1-6.03,1.71-9.11,2.23
				c-1.55,0.24-3.1,0.49-4.65,0.71c-0.78,0.1-1.55,0.25-2.34,0.32l-2.35,0.21c-1.57,0.13-3.14,0.27-4.72,0.36
				c-1.58,0.04-3.17,0.06-4.75,0.08c-6.34-0.03-12.74-0.6-19.03-2.06c-3.14-0.75-6.25-1.66-9.3-2.87c-0.76-0.29-1.52-0.59-2.27-0.95
				c-0.75-0.36-1.5-0.67-2.24-1.06l-0.79-0.42c-1.15,1.54-2.34,2.96-3.58,4.27c-6.65,7.05-14.47,10.63-23.24,10.63
				c-0.27,0-0.55,0-0.82-0.01c-0.96-0.02-1.91-0.1-2.83-0.22c-3.73,10.25-17.42,52.54-2.51,84.31
				c7.08,15.09,19.77,25.85,37.75,32.02c0.15-0.5,0.31-1.01,0.49-1.5c0.92-2.56,2.11-4.99,3.53-7.23
				c2.83-4.49,6.42-8.29,10.31-11.57c3.89-3.28,8.1-6.06,12.45-8.48c4.36-2.41,8.87-4.47,13.47-6.24c4.6-1.76,9.29-3.26,14.03-4.5
				c2.37-0.62,4.75-1.19,7.15-1.66c2.4-0.46,4.82-0.85,7.24-1.14c2.43-0.29,4.86-0.48,7.29-0.59c1.22-0.05,2.44-0.09,3.66-0.08
				c1.22-0.01,2.44,0.01,3.65,0.06c4.87,0.19,9.72,0.72,14.48,1.89c-2.39,0.57-4.76,1.03-7.11,1.5l-7.01,1.37
				c-4.65,0.91-9.24,1.84-13.81,2.82c-4.56,1-9.09,2.03-13.58,3.23c-4.48,1.21-8.88,2.66-13.18,4.35c-4.29,1.7-8.46,3.65-12.43,5.89
				c-3.97,2.24-7.73,4.79-11.11,7.69c-3.38,2.9-6.37,6.16-8.59,9.77c-1.13,1.8-2.02,3.69-2.7,5.62c-0.66,1.94-1.08,3.93-1.22,5.93
				c-0.06,1-0.07,2.01,0,3.01c0.03,0.51,0.09,0.99,0.15,1.51l0.26,1.62c0.05,0.27,0.08,0.54,0.13,0.8l0.17,0.79
				c0.12,0.52,0.21,1.06,0.36,1.56l0.44,1.52c0.06,0.26,0.15,0.5,0.25,0.74l0.27,0.73c0.74,1.92,1.62,3.74,2.8,5.31
				c1.16,1.58,2.54,2.97,4.12,4.16c0.41,0.28,0.79,0.59,1.22,0.86l1.3,0.78c0.91,0.47,1.81,0.96,2.8,1.35
				c0.95,0.44,1.98,0.75,2.98,1.12c1.05,0.29,2.07,0.64,3.16,0.87c2.13,0.54,4.36,0.89,6.59,1.23c1.13,0.13,2.26,0.28,3.4,0.39
				c1.15,0.09,2.28,0.22,3.44,0.28c4.61,0.31,9.28,0.39,13.98,0.36c4.7-0.03,9.42-0.17,14.15-0.36c4.73-0.2,9.48-0.44,14.23-0.7
				c4.68-0.28,9.32-0.65,13.92-1.24c9.17-1.21,18.22-3.17,26.51-6.62c4.14-1.73,8.08-3.83,11.69-6.35c3.61-2.52,6.89-5.46,9.77-8.78
				c5.79-6.62,9.82-14.77,12.69-23.39c1.44-4.32,2.57-8.78,3.49-13.3c0.25-1.12,0.44-2.27,0.65-3.41l0.31-1.71l0.27-1.72l0.52-3.45
				c0.17-1.15,0.29-2.31,0.43-3.46c0.58-4.62,0.92-9.27,1.17-13.93c0.08-2.33,0.21-4.67,0.22-7c0.01-1.17,0.04-2.34,0.05-3.51
				l-0.03-3.51c0-1.17-0.03-2.34-0.07-3.51l-0.11-3.51c-0.13-2.34-0.21-4.68-0.38-7.02c-0.29-4.68-0.74-9.36-1.27-14.02
				c-1.08-9.33-2.58-18.63-4.5-27.84c-0.95-4.61-2.01-9.19-3.16-13.74c-0.58-2.27-1.18-4.55-1.82-6.8
				c-0.32-1.13-0.64-2.25-0.98-3.37c-0.33-1.1-0.68-2.25-1.02-3.27l-0.11-0.34l-0.08-0.49l-0.06-0.37l-0.09-0.47
				c-0.07-0.32-0.14-0.65-0.22-0.98c-0.16-0.66-0.35-1.33-0.55-2c-0.4-1.34-0.88-2.66-1.41-3.97c-1.08-2.6-2.39-5.11-3.93-7.46
				C769.58,235.7,765.56,231.69,760.88,228.62z"/>
			<path d="M586.21,86.06c3.12-2.18,6.14-3.9,8.88-5.26c-1.23-0.1-2.01-0.1-2.03-0.1l-11.72-0.04l9.16-7.3
				c10.57-8.42,21.28-13.96,31.39-17.56c-5.75-6.6-16.23-16-31.01-18.9c-14.38-2.82-29.93,0.96-46.34,11.25l12.34,1.26l-8.97,6.34
				c-0.07,0.05-7.45,5.36-15.02,15.38c-7.92,10.48-13.09,21.92-15.44,34.14l11.97-9.84L525,108.88c-0.04,0.12-3.99,12.63-1.05,28.19
				c3.46,18.32,14.61,33.08,33.18,43.99c-1.38-8.83-1.49-16.78-1.07-23.32c0.46-7.06,1.54-13.13,2.68-17.87l-6.05,3.91l2.51-10.1
				C561.65,107.69,575.62,93.44,586.21,86.06z"/>
			<path d="M613.23,273.51c8.5-9.01,14.97-25.34,19.25-48.52c1.8-9.76,4.47-33.21-9.56-40.22h0c-2.93-1.46-6.54-2.21-10.73-2.22
				c-0.02,0-0.04,0-0.07,0c-16.01,0-24.56,14.76-28.91,27.16l-0.77,2.18c-4.97,14.11-10.6,30.09-9.69,44.94
				c0.71,11.63,9.56,24.38,22.62,24.71C602.14,281.71,607.98,279.09,613.23,273.51z"/>
			<path d="M636.32,245.07c1.66,0.44,3.48,0.73,5.45,0.85c9.36,0.57,15.64-0.9,19.19-4.49c0.41-0.42,0.79-0.87,1.13-1.34
				c0,0,0,0-0.01-0.01c-1.02-1.25-2.05-2.49-3.02-3.79c-1.94-2.59-3.8-5.27-5.42-8.12c-3.31-5.7-5.75-11.97-6.86-18.66
				c-0.27-1.67-0.45-3.37-0.53-5.08c-0.06-1.72-0.02-3.45,0.15-5.19c0.29-3.1,1.06-6.22,2.28-9.17c-1.46-0.45-3.03-0.67-4.74-0.63
				c-0.19,0-0.37,0.01-0.55,0.02c-1.63,0.08-3.19,0.41-4.67,0.97c5.02,11.42,3.66,26.29,1.86,36.05
				C639.34,233.25,637.92,239.43,636.32,245.07z"/>
			<path d="M582.35,377.34c-3.57-7.61-5.88-16.28-6.93-25.77c-13.88,4.39-26.14,10.34-34.91,16.99c-7.22,5.47-15.55,14.1-14.3,24.17
				c1.57,12.58,7.16,19.03,19.29,22.27c12.1,3.23,29.51,3.05,57.41,1.58c8.45-0.44,15.88-1.32,22.65-2.66
				C605.03,407.03,590.5,394.74,582.35,377.34z"/>
			<path d="M820.66,59.6c-1.87-3.52-3.92-6.95-6.13-10.26c-1.11-1.66-2.26-3.28-3.44-4.87c-0.59-0.79-1.2-1.57-1.81-2.34L808.35,41
				l-0.46-0.55l-0.43-0.49l-7.45-8.5l7.09,1.05c-3.57-3.07-7.35-5.88-11.32-8.33c-7.49-4.67-15.73-8.01-24.3-9.71
				c-4.29-0.83-8.65-1.29-13.03-1.31c-4.38-0.02-8.76,0.36-13.09,1.11c-4.33,0.76-8.6,1.89-12.75,3.36
				c-2.07,0.74-4.12,1.56-6.11,2.47c-1,0.46-1.98,0.93-2.94,1.43c-0.48,0.25-0.96,0.5-1.42,0.76l-0.68,0.39l-0.6,0.36l-14.09,8.47
				l7.34-12.38c-1.08,0.8-2.14,1.64-3.15,2.52c-4.71,4.06-8.7,8.94-11.94,14.4c-1.6,2.74-3.07,5.59-4.31,8.57
				c-1.28,2.96-2.32,6.05-3.33,9.17c-1.01,3.12-1.97,6.3-2.91,9.53c-0.95,3.24-1.88,6.52-2.92,9.95c-0.63-1.69-1.02-3.44-1.32-5.2
				c-0.3-1.76-0.47-3.53-0.56-5.3c-0.02-0.42-0.03-0.85-0.04-1.28c-2.44-0.77-13.13-3.83-27.78-3.59
				c-18.84,0.31-36.29,5.68-52.01,15.97c2.34,0.59,4.79,1.41,7.07,2.58l10.95,5.6l-12.11,2.13c-0.08,0.01-9,1.7-19.13,8.87
				c-10.85,7.67-18.92,18.41-24.09,32l8.83-5.7l-5.49,12.54c-0.04,0.1-4.6,10.76-5.58,26.72c-1.09,17.73,2.43,34.66,10.44,50.49
				l0.75-2.12c7.4-21.07,20.42-32.67,36.68-32.67c0.03,0,0.06,0,0.09,0c5.47,0.01,10.31,1.05,14.39,3.09h0
				c3.11,1.55,5.65,3.58,7.7,5.94c2.72-1.25,5.63-1.95,8.69-2.11c0.27-0.01,0.54-0.02,0.82-0.03c3.29-0.06,6.36,0.51,9.19,1.67
				c0.72-0.89,1.48-1.74,2.29-2.53c2.47-2.45,5.38-4.65,8.7-6.15l1.26-0.54c0.42-0.19,0.86-0.31,1.29-0.46
				c0.86-0.32,1.75-0.52,2.63-0.75c1.78-0.37,3.6-0.65,5.39-0.66l0.68-0.02l0.67,0.02c0.45,0.01,0.9,0.02,1.34,0.04
				c0.88,0.08,1.77,0.13,2.64,0.28c1.75,0.23,3.44,0.64,5.09,1.09c3.29,0.96,6.42,2.26,9.36,3.78c1.19,0.62,2.36,1.27,3.51,1.95
				c0.62-0.27,1.22-0.54,1.79-0.84c1.14-0.56,2.22-1.13,3.31-1.84c1.09-0.73,2.19-1.55,3.44-2.81c0.34,0.85,0.33,1.77,0.19,2.66
				c-0.04,0.22-0.09,0.44-0.14,0.66c-0.06,0.22-0.14,0.42-0.22,0.64c-0.14,0.44-0.37,0.82-0.59,1.23c-0.78,1.34-1.96,2.41-3.26,3.18
				c0.13,0.09,0.26,0.17,0.39,0.26c2.68,1.84,5.24,3.8,7.71,5.85l1.78,1.46c0.59,0.47,1.15,0.96,1.75,1.41
				c1.19,0.93,2.37,1.85,3.6,2.74c4.85,3.6,9.95,6.93,15.15,10.1c5.2,3.17,10.56,6.12,15.98,8.92c1.35,0.7,2.73,1.37,4.09,2.06
				c1.38,0.66,2.74,1.34,4.13,1.97l2.07,0.96l2.27,1.1c0.75,0.39,1.49,0.81,2.24,1.21c0.73,0.43,1.45,0.88,2.18,1.33
				c1.34,0.86,2.63,1.8,3.88,2.79c13.68-25.5,13.45-47.29,11.18-60.44c-0.68-0.09-1.36-0.2-2.04-0.35c-0.42-0.08-0.84-0.2-1.25-0.29
				c-0.41-0.11-0.83-0.25-1.23-0.37c-1.63-0.53-3.22-1.22-4.72-2.2c0.83-0.36,1.64-0.64,2.44-0.91c0.8-0.28,1.58-0.51,2.35-0.76
				c1.54-0.45,3.04-0.93,4.5-1.33l4.31-1.24c1.41-0.4,2.81-0.8,4.18-1.25c1.38-0.45,2.71-0.99,4.02-1.58
				c1.31-0.58,2.59-1.24,3.83-1.94c2.48-1.43,4.83-3.06,7.02-4.92c4.39-3.7,8.18-8.18,11.45-13.08c1.65-2.45,3.14-5.02,4.53-7.65
				c0.69-1.32,1.35-2.66,1.98-4c0.31-0.68,0.62-1.35,0.92-2.02l0.82-1.93v0v-14.95l7.6,14.08l0.48,0.9
				c0.61-4.18,0.91-8.4,0.87-12.63c-0.05-7.87-1.22-15.74-3.33-23.37C827.43,74.05,824.4,66.64,820.66,59.6z M598.73,145.3
				c-0.44,0.79-0.98,1.53-1.63,2.18c-0.65,0.64-1.39,1.21-2.19,1.66c-1.6,0.89-3.41,1.35-5.17,1.32c-0.88-0.01-1.75-0.14-2.59-0.39
				c-0.84-0.26-1.66-0.61-2.37-1.2c1.63-0.77,3.01-1.35,4.32-1.94c1.29-0.59,2.47-1.16,3.58-1.78c0.55-0.32,1.09-0.65,1.64-0.99
				c0.54-0.35,1.07-0.74,1.64-1.13c1.11-0.82,2.23-1.79,3.69-2.9C599.98,141.92,599.57,143.7,598.73,145.3z M690.62,140.23
				c-0.84,0.25-1.71,0.37-2.59,0.39c-1.76,0.03-3.57-0.43-5.17-1.32c-0.8-0.45-1.54-1.01-2.19-1.66c-0.65-0.65-1.2-1.39-1.63-2.18
				c-0.83-1.6-1.24-3.38-0.91-5.17c1.46,1.1,2.58,2.07,3.69,2.9c0.57,0.4,1.1,0.78,1.64,1.13c0.54,0.35,1.08,0.68,1.64,0.99
				c1.11,0.62,2.29,1.19,3.58,1.78c1.3,0.6,2.68,1.17,4.32,1.94C692.28,139.63,691.46,139.98,690.62,140.23z M760.07,138.89
				c-1.86-0.61-3.69-1.3-5.5-2.06c-3.62-1.51-7.12-3.29-10.51-5.3l-2.51-1.55c-0.83-0.53-1.64-1.1-2.46-1.65
				c-0.82-0.55-1.62-1.14-2.41-1.73c-0.8-0.58-1.57-1.2-2.35-1.82l-1.16-0.93c-0.38-0.31-0.75-0.65-1.13-0.97
				c-0.75-0.66-1.51-1.3-2.23-1.99l-2.16-2.07l-2.07-2.17c-2.7-2.96-5.19-6.14-7.36-9.55c-1.02-1.75-2.1-3.46-2.95-5.3
				c-0.94-1.79-1.66-3.7-2.39-5.58c-1.36-3.82-2.21-7.81-2.57-11.8c-0.04-1.01-0.09-2.01-0.12-3c-0.03-0.5,0-1,0.03-1.49
				c0.02-0.5,0.06-1,0.09-1.49c0.04-0.49,0.06-0.99,0.11-1.48c0.04-0.49,0.15-0.98,0.22-1.47c0.17-0.98,0.34-1.94,0.56-2.89
				c0.91,3.84,1.8,7.49,3.08,10.99c0.49,1.31,1,2.59,1.54,3.86c0.1-0.4,0.21-0.8,0.32-1.2c1.13-3.89,2.51-7.73,4.24-11.43
				c1.72-3.7,3.76-7.28,6.15-10.65c0.61-0.83,1.2-1.68,1.85-2.49l1.98-2.4l2.12-2.28c0.72-0.75,1.5-1.44,2.25-2.16
				c3.07-2.81,6.49-5.25,10.12-7.29c3.68-1.95,7.55-3.5,11.52-4.59c1-0.24,2-0.45,3-0.68c0.5-0.11,1-0.23,1.5-0.32l1.52-0.21
				c1.01-0.14,2.02-0.26,3.03-0.34c1.02-0.03,2.03-0.02,3.05-0.01l1.51,0.04c0.5,0.04,1.01,0.12,1.51,0.17c1,0.14,2,0.3,2.99,0.48
				c0.25,0.05,0.49,0.1,0.74,0.15c0.25,0.07,0.49,0.13,0.73,0.21c0.49,0.14,0.97,0.29,1.46,0.45c0.97,0.32,1.92,0.68,2.86,1.11
				c-0.99,0.36-1.96,0.65-2.92,0.91c-0.48,0.13-0.95,0.24-1.43,0.35c-0.24,0.06-0.47,0.11-0.71,0.16c-0.24,0.06-0.47,0.13-0.7,0.2
				c-0.93,0.25-1.86,0.48-2.78,0.68c-0.46,0.1-0.92,0.18-1.37,0.3l-1.36,0.35c-0.9,0.22-1.8,0.43-2.7,0.61
				c-0.88,0.24-1.76,0.48-2.65,0.69l-1.32,0.31c-0.44,0.12-0.86,0.27-1.29,0.4l-2.58,0.81c-3.36,1.27-6.59,2.79-9.59,4.67
				c-2.98,1.91-5.72,4.16-8.24,6.64c-0.61,0.64-1.25,1.25-1.83,1.92l-1.74,2.01l-1.63,2.11c-0.54,0.71-1.02,1.46-1.54,2.19
				c-1.99,2.96-3.74,6.11-5.27,9.39c-1.52,3.28-2.86,6.67-3.96,10.14c-0.53,1.74-1.08,3.49-1.51,5.25
				c-0.21,0.88-0.44,1.76-0.63,2.64c-0.1,0.44-0.18,0.88-0.28,1.31l-0.18,0.93c0.84,1.28,1.73,2.52,2.61,3.76
				c2.18,2.9,4.51,5.68,6.97,8.38c4.94,5.38,10.4,10.36,16.14,15.17c2.87,2.41,5.82,4.76,8.82,7.1c1.5,1.18,3.01,2.33,4.54,3.51
				l4.63,3.53C763.82,140.05,761.93,139.5,760.07,138.89z M799.1,88.89c-0.13,2.38-0.4,4.75-0.87,7.09
				c-0.92,4.67-2.46,9.21-4.54,13.43c-1.05,2.11-2.19,4.16-3.48,6.11c-1.26,1.96-2.65,3.83-4.12,5.62
				c-2.95,3.57-6.24,6.79-9.82,9.62c-1.79,1.41-3.64,2.73-5.57,3.93c-1.92,1.2-3.9,2.31-6,3.17c3.13-3.24,6.02-6.55,8.73-9.96
				c2.7-3.41,5.2-6.91,7.41-10.53c1.11-1.81,2.14-3.65,3.11-5.51c0.95-1.87,1.85-3.75,2.63-5.67c1.57-3.84,2.77-7.78,3.56-11.79
				l0.28-1.51l0.22-1.51c0.13-1.01,0.26-2.02,0.33-3.04c0.18-2.03,0.24-4.08,0.19-6.13c-0.09-4.11-0.63-8.23-1.53-12.34
				c-1.77-8.25-5.11-16.3-8.81-24.5c0.82,0.77,1.61,1.57,2.4,2.39c0.75,0.84,1.53,1.67,2.25,2.54c1.45,1.74,2.82,3.55,4.09,5.45
				c2.53,3.8,4.68,7.91,6.29,12.29c0.42,1.09,0.76,2.21,1.12,3.32c0.18,0.56,0.31,1.13,0.46,1.7c0.15,0.57,0.3,1.14,0.42,1.71
				c0.56,2.29,0.88,4.64,1.11,7C799.2,84.13,799.22,86.51,799.1,88.89z"/>
			<g>
				<path class="st1" d="M791.94,371.18c0.11-0.75,0.2-1.5,0.29-2.25c0.05-0.41,0.1-0.82,0.15-1.24c0.51-4.05,0.87-8.37,1.18-14.05
					c0.02-0.66,0.05-1.33,0.08-1.99c0.07-1.65,0.14-3.36,0.14-5.05c0-0.42,0.01-0.83,0.02-1.25c0.01-0.76,0.03-1.51,0.03-2.28
					l-0.03-3.5c0-1.2-0.03-2.41-0.07-3.55l-0.11-3.54c-0.04-0.76-0.08-1.51-0.11-2.27c-0.07-1.57-0.15-3.18-0.27-4.76
					c-0.25-4.11-0.66-8.59-1.28-14.1c-1.09-9.37-2.61-18.77-4.52-27.96c-0.96-4.65-2.03-9.3-3.18-13.81
					c-0.69-2.69-1.27-4.86-1.83-6.83c-0.33-1.18-0.66-2.32-0.98-3.39c-0.36-1.21-0.72-2.36-1.03-3.31l-0.08-0.24l-0.23-1.27
					c-0.07-0.34-0.15-0.68-0.23-1.03c-0.15-0.63-0.34-1.31-0.57-2.07c-0.4-1.34-0.89-2.72-1.46-4.1c-1.13-2.73-2.49-5.32-4.05-7.68
					c-3.19-4.87-7.28-8.97-12.2-12.21l-1.79-1.1l-0.06-0.04c-0.24-0.13-0.47-0.26-0.71-0.39c-0.38-0.21-0.77-0.43-1.19-0.65
					l-1.93-0.95l-2.15-1.01c-0.91-0.43-1.84-0.88-2.73-1.32c-0.5-0.25-1-0.49-1.48-0.73c-0.45-0.23-0.89-0.45-1.34-0.68
					c-0.96-0.48-1.91-0.97-2.86-1.47c-5.98-3.13-11.34-6.16-16.39-9.27c-5.98-3.69-11.09-7.15-15.64-10.6
					c-1.24-0.92-2.48-1.9-3.76-2.92c-0.39-0.3-0.78-0.63-1.18-0.97c-0.21-0.18-0.43-0.36-0.63-0.53l-1.8-1.5
					c-2.39-2.02-4.8-3.89-7.16-5.54c-2.52-1.78-5.08-3.36-7.61-4.69c-2.65-1.41-5.37-2.54-8.11-3.37c-1.22-0.35-2.67-0.73-4.14-0.93
					c-0.51-0.09-0.99-0.14-1.46-0.18c-0.2-0.02-0.4-0.04-0.59-0.06l-0.06-0.01c-0.22-0.01-0.43-0.02-0.64-0.03
					c-0.12,0-0.25-0.01-0.38-0.01l-0.54-0.02l-0.51,0.01c-1.45,0-2.81,0.21-4.07,0.45l-0.09,0.02c-0.16,0.04-0.33,0.08-0.49,0.12
					c-0.48,0.12-0.97,0.24-1.46,0.42c-0.09,0.03-0.19,0.06-0.28,0.09c-0.22,0.07-0.46,0.15-0.69,0.25l-0.91,0.38
					c-2.34,1.03-4.64,2.63-6.84,4.76c-2,1.91-3.65,4.19-4.91,6.78c-2.28,4.78-2.97,10.58-1.99,16.76c0.86,5.53,2.92,11.27,5.95,16.6
					c1.28,2.31,2.85,4.7,4.93,7.54c0.79,1.08,1.64,2.14,2.46,3.16l0.82,0.99c0.81,0.95,1.64,1.94,2.51,2.87
					c4.43,4.92,9.34,9.45,13.13,12.85c2,1.78,4.15,3.67,6.97,6.11c2.29,1.98,4.67,3.97,7.08,5.9c2.16,1.74,4.49,3.52,7.31,5.58
					l7.34,5.4l7.37,5.47l1.15,0.86c0.59,0.44,1.19,0.89,1.78,1.34c-1.11-0.31-2.28-0.67-3.52-1.09c-2.73-0.95-5.52-2.18-8.55-3.77
					c-5.68-2.96-10.78-6.8-15.5-10.49c-2.48-1.95-4.92-3.95-7.27-5.95c-2.87-2.44-5.05-4.32-7.08-6.09
					c-4.62-4.07-8.07-7.31-11.19-10.52l-1.04-1.08l-0.98,1.14c-0.3,0.34-0.56,0.64-0.82,0.9c-4.42,4.47-11.09,6.65-20.41,6.65
					c-1.3,0-2.67-0.04-4.08-0.13c-2.52-0.15-4.92-0.54-7.13-1.16l-1.24-0.35l-0.42,1.22c-1.88,5.4-3.99,10.26-6.29,14.43l-0.74,1.34
					l1.41,0.59c1.11,0.47,2.44,1,3.8,1.45c2.67,0.98,5.37,1.67,8.39,2.42c5.25,1.22,10.96,2.01,17.5,2.43
					c1.41,0.06,2.88,0.13,4.38,0.21l0.06,0c0.81,0.01,1.63,0,2.45,0c0.66-0.01,1.32-0.01,1.99-0.01l2.22,0
					c0.52,0,1.03-0.03,1.52-0.06c0.25-0.02,0.51-0.03,0.79-0.05c0.97-0.06,1.94-0.1,2.92-0.15c0.51-0.02,1.01-0.05,1.52-0.07
					l1.12-0.05l1.19-0.13c0.72-0.08,1.46-0.16,2.2-0.22c0.49-0.04,0.99-0.07,1.49-0.09c0.23-0.01,0.46-0.02,0.69-0.04l0.48-0.01
					c0.59-0.01,1.15-0.03,1.71-0.02l0.04,0l0.03,0c1.41-0.04,2.93-0.07,4.48,0.03c0.38,0.02,0.79,0.05,1.21,0.09
					c-0.36,0.2-0.71,0.4-1.05,0.57c-1.45,0.76-2.81,1.38-4.16,1.89c-2.68,0.9-5.58,1.61-8.86,2.16c-0.53,0.08-1.07,0.16-1.6,0.25
					c-1.01,0.16-2.02,0.32-3.03,0.46c-0.28,0.04-0.57,0.08-0.85,0.12c-0.5,0.08-0.96,0.15-1.43,0.19l-2.77,0.24
					c-1.39,0.12-2.83,0.24-4.24,0.32c-1.61,0.04-3.2,0.06-4.69,0.08c-6.88-0.04-13.01-0.7-18.72-2.02
					c-3.47-0.83-6.45-1.75-9.13-2.82c-0.7-0.26-1.44-0.56-2.17-0.91c-0.26-0.13-0.53-0.25-0.79-0.37c-0.49-0.22-0.95-0.43-1.4-0.67
					l-1.83-0.97l-0.7,0.94c-1.12,1.49-2.29,2.89-3.48,4.15c-6.38,6.77-13.86,10.2-22.24,10.2c-0.26,0-0.52,0-0.79-0.01
					c-0.85-0.02-1.74-0.09-2.7-0.21l-1.08-0.13l-0.37,1.03c-1.82,4.99-6.26,18.34-8.32,34.38c-2.57,20.08-0.6,37.23,5.85,50.98
					c7.24,15.42,20.2,26.44,38.54,32.73l1.35,0.46l0.41-1.37c0.16-0.54,0.31-1.01,0.46-1.43c0.89-2.47,2.03-4.81,3.4-6.96
					c2.52-4.01,5.81-7.69,10.03-11.25c3.58-3.02,7.58-5.75,12.23-8.32c4.08-2.26,8.55-4.33,13.29-6.16
					c4.53-1.73,9.2-3.23,13.88-4.45c2.82-0.73,5-1.24,7.07-1.64c2.41-0.46,4.81-0.84,7.14-1.12c2.36-0.28,4.78-0.47,7.19-0.58
					c1.14-0.04,2.35-0.08,3.62-0.08c1.08-0.01,2.25,0.01,3.58,0.06c2.66,0.1,5.14,0.31,7.48,0.61l-7.32,1.43
					c-5.14,1-9.66,1.93-13.84,2.83c-4.12,0.9-8.91,1.98-13.64,3.25c-4.5,1.21-8.98,2.69-13.33,4.4c-4.51,1.79-8.75,3.79-12.6,5.97
					c-4.27,2.42-8.08,5.06-11.33,7.84c-3.72,3.19-6.71,6.59-8.86,10.08c-1.14,1.82-2.09,3.8-2.83,5.91
					c-0.71,2.07-1.14,4.18-1.29,6.29c-0.07,1.09-0.07,2.16,0,3.18c0.03,0.49,0.08,0.95,0.14,1.43l0.28,1.84
					c0.01,0.09,0.03,0.18,0.04,0.27c0.03,0.2,0.06,0.4,0.1,0.6l0.18,0.8c0.04,0.18,0.08,0.37,0.12,0.55
					c0.07,0.35,0.15,0.71,0.25,1.08l0.43,1.5c0.08,0.32,0.19,0.61,0.28,0.86l0.27,0.74c0.9,2.34,1.84,4.13,2.97,5.63
					c1.23,1.68,2.71,3.17,4.4,4.45l0.05,0.03c0.15,0.1,0.29,0.21,0.44,0.31c0.26,0.19,0.53,0.39,0.85,0.59l1.3,0.78l0.55,0.29
					c0.76,0.4,1.55,0.81,2.42,1.15c0.72,0.33,1.47,0.59,2.19,0.84c0.29,0.1,0.57,0.2,0.86,0.3l0.11,0.03
					c0.33,0.09,0.66,0.19,0.99,0.29c0.71,0.21,1.44,0.43,2.22,0.59c2.12,0.54,4.29,0.89,6.7,1.25l0.05,0.01
					c0.39,0.04,0.77,0.09,1.15,0.14c0.74,0.09,1.5,0.18,2.29,0.26c0.39,0.03,0.78,0.07,1.17,0.1c0.75,0.07,1.52,0.14,2.28,0.18
					c3.72,0.25,7.68,0.37,12.34,0.37c0.57,0,1.15,0,1.74-0.01c4.37-0.03,9.02-0.15,14.2-0.37c4.32-0.18,8.98-0.41,14.25-0.7
					c5.4-0.32,9.85-0.72,14.02-1.25c10.57-1.4,19.36-3.6,26.86-6.72c4.36-1.82,8.38-4,11.94-6.49c3.71-2.59,7.09-5.62,10.02-9
					c5.37-6.14,9.73-14.17,12.96-23.86c1.37-4.12,2.53-8.52,3.53-13.44c0.2-0.89,0.36-1.78,0.52-2.65l0.46-2.56L791.94,371.18z"/>
				<path class="st1" d="M623.54,183.55c-3.12-1.56-6.94-2.36-11.35-2.37h-0.07c-16.82,0-25.71,15.27-30.21,28.08l-0.77,2.18
					c-5.01,14.23-10.69,30.35-9.77,45.48c0.74,12.23,10.11,25.65,23.95,26h0c0.21,0,0.42,0.01,0.63,0.01
					c6.91,0,12.89-2.78,18.26-8.47c8.68-9.21,15.28-25.77,19.6-49.22C635.69,215.17,638.41,190.96,623.54,183.55z"/>
				<path class="st1" d="M583.59,376.75L583.59,376.75c-3.48-7.43-5.77-15.96-6.8-25.34l-0.18-1.66l-1.6,0.5
					c-14.18,4.49-26.4,10.43-35.32,17.2c-7.5,5.69-16.17,14.72-14.83,25.43c1.63,13.06,7.7,20.06,20.29,23.43
					c7.11,1.9,15.97,2.64,27.62,2.64c8.47,0,18.41-0.39,30.21-1.01c8.52-0.45,16-1.33,22.84-2.69l5.07-1.01l-4.9-1.64
					C605.84,405.85,591.57,393.79,583.59,376.75z"/>
				<path class="st1" d="M556.43,182.25l2.5,1.47l-0.45-2.87c-1.19-7.63-1.55-15.38-1.06-23.02c0.39-6.01,1.28-11.95,2.64-17.64
					l0.8-3.33l-6.01,3.89l1.67-6.73c6.35-25.57,20.07-39.57,30.46-46.82c2.78-1.94,5.71-3.67,8.71-5.16l4.48-2.22l-4.98-0.38
					c-1.33-0.1-2.13-0.11-2.14-0.11l-7.82-0.02l6.11-4.87c9.5-7.57,19.93-13.4,30.99-17.34l1.9-0.68l-1.33-1.52
					c-6.29-7.22-16.91-16.43-31.78-19.35c-14.71-2.89-30.63,0.96-47.33,11.44l-3.38,2.12l12.67,1.29l-5.98,4.23
					c-0.08,0.05-7.65,5.52-15.32,15.66c-8.03,10.62-13.31,22.3-15.69,34.71l-0.72,3.73l11.26-9.26l-2.95,8.98
					c-0.04,0.13-4.09,13.02-1.09,28.87C526.14,156.02,537.52,171.13,556.43,182.25z"/>
				<path class="st1" d="M830.85,81.32c-2.07-7.52-5.09-15.04-8.98-22.37c-1.89-3.56-3.98-7.06-6.2-10.38
					c-1.13-1.7-2.31-3.35-3.49-4.93c-0.61-0.82-1.23-1.62-1.85-2.38l-0.94-1.15l-5.89-6.74l8.1,1.2l-3.61-3.1
					c-3.74-3.21-7.61-6.06-11.49-8.46c-7.79-4.85-16.12-8.18-24.77-9.9c-4.47-0.87-8.94-1.31-13.29-1.33
					c-4.42-0.03-8.9,0.36-13.34,1.13c-4.37,0.76-8.74,1.92-12.97,3.42c-2.13,0.76-4.22,1.6-6.22,2.52c-1.04,0.47-2.04,0.96-3,1.46
					c-0.49,0.26-0.98,0.52-1.46,0.79l-10.73,6.43l8.06-13.59l-5.49,4.09c-1.2,0.89-2.26,1.74-3.23,2.58
					c-4.73,4.08-8.84,9.04-12.23,14.75c-1.75,2.99-3.19,5.84-4.39,8.72c-1.35,3.13-2.45,6.43-3.38,9.29
					c-0.89,2.76-1.79,5.71-2.93,9.57c-0.33,1.11-0.65,2.23-0.98,3.36c-0.18,0.61-0.36,1.23-0.54,1.86c-0.02-0.1-0.04-0.21-0.05-0.31
					c-0.27-1.57-0.45-3.25-0.55-5.14c-0.02-0.41-0.03-0.83-0.04-1.24l-0.02-0.98l-0.94-0.29c-2.91-0.92-13.56-3.9-28.21-3.65
					c-19.06,0.32-36.81,5.76-52.74,16.19l-2.62,1.72l3.04,0.76c2.54,0.64,4.82,1.47,6.78,2.47l7.3,3.73l-8.08,1.42
					c-0.09,0.02-9.29,1.75-19.68,9.1c-11.05,7.81-19.32,18.79-24.58,32.64l-1.49,3.91l8.51-5.5l-3.66,8.36
					c-0.05,0.11-4.69,10.96-5.69,27.19c-1.1,17.93,2.46,35.15,10.59,51.2l1.45,2.87l1.81-5.16c7.19-20.47,19.76-31.75,35.39-31.75
					h0.08c5.26,0.01,9.9,1,13.78,2.95c2.81,1.4,5.26,3.29,7.27,5.61l0.67,0.78l0.93-0.43c2.56-1.17,5.31-1.84,8.18-1.98
					c0.26-0.01,0.52-0.02,0.77-0.03c3.08-0.06,5.99,0.47,8.64,1.57l0.95,0.39l0.64-0.8c0.71-0.88,1.45-1.69,2.19-2.42
					c2.62-2.59,5.41-4.57,8.28-5.86l1.27-0.55c0.22-0.1,0.47-0.18,0.73-0.27c0.16-0.05,0.31-0.1,0.48-0.16
					c0.63-0.24,1.3-0.41,2.01-0.59l0.45-0.12c2-0.42,3.62-0.61,5.13-0.63l0.64-0.02l1.05,0.03c0.29,0.01,0.57,0.01,0.85,0.03
					c0.21,0.02,0.42,0.04,0.64,0.05c0.66,0.06,1.28,0.11,1.87,0.21l0.05,0.01c1.82,0.24,3.58,0.69,4.89,1.05
					c3.07,0.9,6.13,2.14,9.12,3.68c1.06,0.55,2.19,1.17,3.44,1.91l0.61,0.36l0.64-0.28c0.59-0.26,1.25-0.55,1.84-0.87
					c1-0.49,2.2-1.11,3.46-1.93c0.43-0.29,0.9-0.61,1.41-1l-0.01,0.03c-0.03,0.1-0.07,0.2-0.1,0.3c-0.03,0.08-0.06,0.15-0.09,0.25
					c-0.09,0.28-0.25,0.56-0.43,0.88l-0.04,0.07c-0.62,1.05-1.57,1.98-2.77,2.69l-1.84,1.1l1.77,1.22c0.07,0.05,0.14,0.1,0.21,0.14
					l0.17,0.11c2.51,1.73,5.07,3.67,7.62,5.78l1.79,1.47c0.2,0.16,0.4,0.32,0.59,0.49c0.38,0.31,0.78,0.64,1.17,0.94
					c1.28,1,2.43,1.89,3.62,2.76c4.41,3.27,9.4,6.59,15.26,10.17c4.94,3.01,10.2,5.94,16.06,8.96c0.93,0.48,1.86,0.94,2.79,1.41
					c0.44,0.22,0.88,0.44,1.34,0.67c0.49,0.23,0.98,0.47,1.47,0.71c0.87,0.42,1.77,0.86,2.67,1.27l2.05,0.96l2.24,1.08
					c0.51,0.26,1.01,0.54,1.51,0.81l0.68,0.37c0.58,0.34,1.15,0.69,1.72,1.04l0.4,0.24c1.28,0.82,2.55,1.74,3.77,2.71l1.29,1.02
					l0.78-1.45c13.71-25.54,13.72-47.44,11.33-61.32l-0.17-0.99l-1-0.13c-0.58-0.08-1.25-0.18-1.96-0.34
					c-0.26-0.05-0.53-0.12-0.79-0.18l-0.37-0.09c-0.29-0.08-0.58-0.17-0.87-0.26l-0.29-0.09c-0.63-0.2-1.22-0.42-1.79-0.66
					c0.34-0.11,0.67-0.21,1-0.32c0.29-0.09,0.57-0.18,0.82-0.26c0.55-0.16,1.09-0.33,1.63-0.49c0.99-0.3,1.92-0.58,2.87-0.84
					l4.53-1.31c1.32-0.38,2.68-0.77,4-1.2c1.28-0.41,2.6-0.93,4.15-1.63c1.25-0.55,2.55-1.2,3.96-2.01
					c2.58-1.48,5.01-3.19,7.22-5.06c4.24-3.58,8.18-8.08,11.71-13.37c1.54-2.29,3.04-4.83,4.61-7.78c0.69-1.33,1.37-2.69,2.02-4.07
					l0.16-0.35c0.26-0.57,0.52-1.13,0.78-1.71l0.93-2.19v-9.8l7.47,13.83l0.6-4.09c0.63-4.28,0.93-8.6,0.89-12.83
					C834.17,97.24,833.04,89.25,830.85,81.32z"/>
				<path class="st1" d="M635,244.7l-0.38,1.34l1.35,0.36c1.76,0.47,3.69,0.77,5.72,0.89c1.33,0.08,2.6,0.12,3.81,0.12
					c7.72,0,13.11-1.65,16.44-5.02c0.45-0.45,0.86-0.94,1.27-1.5l0.69-0.95l-0.78-0.78l-0.23-0.28c-0.91-1.11-1.84-2.25-2.71-3.41
					c-2.23-2.98-3.93-5.51-5.33-7.99c-3.42-5.89-5.67-12.02-6.69-18.19c-0.27-1.68-0.44-3.34-0.51-4.92
					c-0.06-1.7-0.02-3.38,0.14-5.01c0.28-3,1.01-5.94,2.18-8.77l0.58-1.39l-1.44-0.45c-1.61-0.5-3.35-0.73-5.17-0.69
					c-0.2,0-0.4,0.01-0.6,0.02c-1.74,0.09-3.45,0.44-5.08,1.05l-1.36,0.51l0.58,1.33c4.81,10.94,3.61,25.21,1.76,35.25
					C638,232.91,636.58,239.12,635,244.7z"/>
				<path class="st1" d="M809.52,368.41c0.5-13.02-3.53-18.72-7.01-21.21l-2.11-1.51l-0.06,2.6c-0.03,1.23-0.08,2.49-0.13,3.71
					c-0.03,0.67-0.05,1.34-0.08,1.98c-0.32,5.81-0.7,10.28-1.22,14.49c-0.05,0.43-0.1,0.85-0.16,1.28c-0.09,0.77-0.19,1.56-0.3,2.32
					l-0.83,5.4l-0.48,2.66c-0.16,0.9-0.33,1.82-0.53,2.74c-1.05,5.19-2.28,9.84-3.73,14.21c-0.27,0.82-0.58,1.7-0.94,2.69
					l-0.98,2.68l2.71-0.91c9.43-3.19,16.22-9.91,20.17-19.97c1.19-3.03,2.1-6.32,2.69-9.79l0.53-3.09l-7.75,5.02L809.52,368.41z"/>
			</g>
			<path class="st2" d="M788.92,58.3c0,0,18.16,53.54-25.24,81c0,0-38.37-23.34-46.15-44.39c0,0,14.61-57.53,61.3-50.5
				C778.84,44.4,784.35,47.77,788.92,58.3z"/>
			<path class="st3" d="M653.47,185.97l-20.92,2.09c0,0,11.31,10.26,5.36,31.77c-5.95,21.51-5.36,29.18-5.36,29.18
				s30.08,4.69,34.19-8.13C666.74,240.89,641.57,212.06,653.47,185.97z"/>
			<path class="st4" d="M698.65,364.35c4.64-19.38,3.84-42.01-11.09-56.45c-13.14-12.71-31.38-12.73-48.23-11.76
				c-9.69,0.56-20.06,2.57-27.75,9.15c-7.75,6.63-11.59,17.14-12.78,27.5c-1.22,10.62-0.77,22.27,0.77,32.82
				c0.8,5.46,2,10.87,3.34,16.21c0.71,2.84,2.3,14.87,4.59,16.33c0,0,21.25,13.31,21.25,13.31S636.37,368.84,698.65,364.35z"/>
			<path class="st5" d="M744.99,126.02c0,0-20.59-54,33.86-81.46c0,0-41.83-4.7-54.78,33.57l-6.54,13.48
				C717.54,91.62,727.6,118.7,744.99,126.02z"/>
			<g>
				<path class="st0" d="M644.32,252.79c0,0-23.04,51.29-61.69,56.55l10.45-24.98c0,0,26.53,0.45,37.97-34.32L644.32,252.79z"/>
				<path class="st0" d="M569.66,348.32c0,0-4.06,56.96,28.43,70.64l30.5-1.37l0.15-6.13c0,0-50.48-14.51-52.92-65.76"/>
				<path class="st0" d="M692.18,443.39c0,0,81.38-6,101.64-78.4C793.83,365,807.78,453.24,692.18,443.39z"/>
				<path class="st0" d="M656.21,250.04c0,0,20.28,21.9,66.2,34.75l-55.67-42.69L656.21,250.04z"/>
				<path class="st0" d="M569.66,254.62c0,0,31.44,25.41,58.77-7.2c0,0-4.12,41.46-41.03,37.38
					C587.41,284.79,568.23,269.72,569.66,254.62z"/>
				<path class="st0" d="M732.05,204.78c0,0,38.54,21.25,55.03-23.72c0,0-5.55,39.86-15.35,50.99l-42.64-25.49"/>
				<path class="st0" d="M520.85,140.62c0,0,24.49,18.18,36.68-10.33l5.16,5.17c0,0-9.77,29.01,0,50.52
					C562.69,185.97,524.14,175.81,520.85,140.62z"/>
				<path class="st0" d="M798.46,372.06c0,0,7.11,4.01,13.66-7.06l4.95,3.68c0,0-0.27,34.5-29.99,37.79"/>
			</g>
			<g>
				<path class="st3" d="M837.47,79.5c-2.28-8.28-5.53-16.23-9.53-23.76c-2-3.77-4.19-7.43-6.56-10.98c-0.45-0.67-0.91-1.34-1.38-2
					l10.16,1.51l-7.96-8.59c-6.5-7.01-13.84-13.39-22.1-18.5c-8.23-5.13-17.43-8.89-27.04-10.79c-4.8-0.93-9.69-1.44-14.58-1.46
					c-4.89-0.03-9.77,0.4-14.56,1.24c-4.8,0.84-9.51,2.09-14.09,3.72c-0.29,0.1-0.57,0.21-0.85,0.31l0.11-0.18L735.03,0l-10.85,4.02
					l0,0c-1.75,0.51-3.5,1.07-5.2,1.77c-1.71,0.68-3.39,1.46-5.03,2.32c-3.27,1.74-6.39,3.81-9.23,6.22
					C699,19.12,694.37,25.12,691,31.61c-1.69,3.25-3.09,6.62-4.22,10.05c-1.11,3.44-2.02,6.92-2.57,10.45
					c-0.05,0.31-0.09,0.62-0.13,0.93c-4.66-1.29-14.8-3.56-28.04-3.38c-7.23,0.1-16.01,0.96-25.61,3.49
					c-5.83-7.44-18.48-20.48-37.87-24.33c-19.42-3.85-40.29,2.54-62.02,19l-8.34,6.32l13.45,1.37c-2.71,2.66-5.9,6.12-9.14,10.38
					c-7.68,10.08-17.13,26.74-18.57,48.86l-0.62,9.48l7.64-6.28c-0.54,5.47-0.61,12.49,0.81,20.25
					c2.91,15.91,12.86,37.95,43.56,53.44c2.33,8.87,6.04,18.33,11.74,27.96c-3.97,12.06-7.33,24.99-6.55,37.73
					c0.74,12.19,8.07,24.88,19.82,30.04c-1.8,5-5.17,15.31-7.41,28.17c-1.68,9.66-2.38,18.9-2.11,27.57
					c-28.79,8.77-59.76,26.82-56.79,50.62c1.98,15.84,10.03,25.12,25.33,29.21c7.74,2.07,17.17,2.87,29.47,2.87
					c8.62,0,18.66-0.39,30.5-1.02c8.79-0.46,16.56-1.38,23.68-2.78l0.09,0.44c0.14,0.64,0.25,1.29,0.42,1.93l0.53,1.93
					c0.08,0.32,0.19,0.64,0.31,0.96l0.34,0.96c0.94,2.53,2.14,5.06,3.8,7.34c1.64,2.28,3.64,4.32,5.86,6.01
					c0.56,0.4,1.12,0.84,1.69,1.21l1.76,1.08c1.2,0.64,2.4,1.29,3.63,1.79c1.22,0.56,2.47,0.96,3.71,1.41
					c1.24,0.36,2.49,0.78,3.74,1.05c2.49,0.65,4.98,1.05,7.46,1.44c1.24,0.15,2.48,0.33,3.71,0.45c1.23,0.11,2.47,0.26,3.69,0.33
					c4.91,0.36,9.78,0.47,14.63,0.47c4.84,0,9.66-0.11,14.46-0.28c4.8-0.17,9.59-0.38,14.36-0.62c4.84-0.26,9.73-0.61,14.59-1.22
					c9.72-1.25,19.51-3.3,28.88-7.15c4.67-1.93,9.21-4.32,13.43-7.25c4.22-2.92,8.11-6.38,11.5-10.26c3.4-3.87,6.28-8.16,8.67-12.64
					c0.44-0.81,0.85-1.63,1.25-2.46l0.13,0.7c14.58-2.71,25.18-11.65,30.66-25.85c4.02-10.43,3.83-20,3.82-20.41l-0.19-7.35
					l-7.79,5.04c-1.6-16.07-10.55-20.62-14.42-21.85c0-1.14-0.03-2.28-0.07-3.42l-0.11-3.64c-0.13-2.42-0.21-4.85-0.41-7.27
					c-0.31-4.84-0.8-9.66-1.35-14.48c-1.15-9.62-2.72-19.17-4.72-28.64c-1-4.73-2.09-9.45-3.3-14.14c-0.61-2.34-1.23-4.69-1.9-7.02
					c-0.33-1.17-0.67-2.33-1.03-3.5c-0.32-1.06-0.64-2.08-1-3.18c-0.02-0.11-0.04-0.21-0.06-0.33l-0.13-0.67
					c-0.09-0.44-0.19-0.86-0.29-1.28c-0.21-0.84-0.44-1.67-0.69-2.48c-0.5-1.63-1.08-3.23-1.74-4.79c-1.31-3.12-2.91-6.13-4.79-8.96
					c-1.31-1.98-2.78-3.87-4.37-5.65c15.42-27.59,15.65-51.56,13.32-66.41c0.82-0.13,1.63-0.29,2.44-0.49
					c6.78-1.49,13.26-4.64,18.78-8.89c5.53-4.25,10.09-9.58,13.69-15.35c1.79-2.9,3.36-5.91,4.67-9.02c0.06-0.13,0.11-0.27,0.17-0.4
					l1.2,2.21l4.84,8.97l2.74-9.8c1.16-4.16,2.06-8.39,2.64-12.68c0.57-4.28,0.86-8.61,0.82-12.92
					C841.03,96.36,839.75,87.77,837.47,79.5z M523.95,137.07c-2.94-15.56,1.01-28.08,1.05-28.19l4.42-13.46l-11.97,9.84
					c2.35-12.22,7.52-23.66,15.44-34.14c7.57-10.01,14.95-15.33,15.02-15.38l8.97-6.34l-12.34-1.26
					c16.41-10.29,31.96-14.07,46.34-11.25c14.77,2.9,25.25,12.31,31.01,18.9c-10.1,3.6-20.82,9.14-31.39,17.56l-9.16,7.3l11.72,0.04
					c0.02,0,0.8,0.01,2.03,0.1c-2.75,1.36-5.76,3.08-8.88,5.26c-10.58,7.38-24.55,21.64-31.01,47.62l-2.51,10.1l6.05-3.91
					c-1.14,4.75-2.22,10.81-2.68,17.87c-0.42,6.55-0.31,14.5,1.07,23.32C538.57,170.15,527.41,155.39,523.95,137.07z M572.76,256.84
					c-0.9-14.85,4.73-30.84,9.69-44.94l0.77-2.18c4.35-12.4,12.9-27.16,28.91-27.16c0.02,0,0.04,0,0.07,0
					c4.19,0.01,7.8,0.76,10.73,2.22h0c14.03,7,11.36,30.46,9.56,40.22c-4.28,23.18-10.75,39.51-19.25,48.52
					c-5.26,5.58-11.1,8.2-17.86,8.03C582.31,281.22,573.46,268.46,572.76,256.84z M646.26,204.43c0.07,1.72,0.26,3.41,0.53,5.08
					c1.11,6.69,3.55,12.96,6.86,18.66c1.62,2.85,3.48,5.53,5.42,8.12c0.97,1.3,2,2.54,3.02,3.79c0,0,0,0,0.01,0.01
					c-0.35,0.48-0.72,0.93-1.13,1.34c-3.55,3.59-9.83,5.06-19.19,4.49c-1.97-0.12-3.79-0.41-5.45-0.85
					c1.6-5.64,3.02-11.83,4.26-18.59c1.8-9.76,3.17-24.63-1.86-36.05c1.49-0.56,3.04-0.89,4.67-0.97c0.18-0.01,0.37-0.02,0.55-0.02
					c1.7-0.04,3.27,0.18,4.74,0.63c-1.22,2.95-1.99,6.06-2.28,9.17C646.24,200.98,646.2,202.71,646.26,204.43z M602.91,416.57
					c-27.9,1.47-45.31,1.65-57.41-1.58c-12.13-3.24-17.71-9.69-19.29-22.27c-1.26-10.06,7.08-18.7,14.3-24.17
					c8.77-6.65,21.03-12.6,34.91-16.99c1.05,9.49,3.36,18.16,6.93,25.77c8.15,17.4,22.69,29.7,43.21,36.57
					C618.79,415.25,611.36,416.13,602.91,416.57z M797.96,383.14c0.27-1.2,0.47-2.41,0.69-3.62l0.33-1.81l0.28-1.81l0.55-3.63
					c0.18-1.21,0.3-2.42,0.46-3.64c0.61-4.85,0.97-9.72,1.23-14.58c0.07-1.91,0.16-3.82,0.21-5.73c2.92,2.09,6.93,7.3,6.44,20.04
					l-0.3,7.92l7.34-4.75c-0.49,2.82-1.29,6.14-2.62,9.52c-3.81,9.7-10.3,16.12-19.33,19.18c0.33-0.91,0.65-1.81,0.95-2.72
					C795.76,392.77,796.98,387.96,797.96,383.14z M778,251.83c0.2,0.67,0.38,1.34,0.55,2c0.08,0.33,0.16,0.66,0.22,0.98l0.09,0.47
					l0.06,0.37l0.08,0.49l0.11,0.34c0.34,1.02,0.69,2.17,1.02,3.27c0.34,1.11,0.66,2.24,0.98,3.37c0.64,2.25,1.24,4.52,1.82,6.8
					c1.16,4.55,2.21,9.14,3.16,13.74c1.91,9.21,3.41,18.51,4.5,27.84c0.52,4.67,0.98,9.34,1.27,14.02c0.18,2.34,0.26,4.68,0.38,7.02
					l0.11,3.51c0.04,1.17,0.07,2.34,0.07,3.51l0.03,3.51c0,1.17-0.03,2.34-0.05,3.51c-0.01,2.34-0.14,4.67-0.22,7
					c-0.26,4.66-0.59,9.31-1.17,13.93c-0.15,1.15-0.27,2.31-0.43,3.46l-0.52,3.45l-0.27,1.72l-0.31,1.71
					c-0.21,1.14-0.4,2.28-0.65,3.41c-0.92,4.53-2.05,8.99-3.49,13.3c-2.87,8.62-6.89,16.77-12.69,23.39
					c-2.88,3.31-6.16,6.26-9.77,8.78c-3.61,2.52-7.55,4.63-11.69,6.35c-8.3,3.45-17.34,5.41-26.51,6.62
					c-4.6,0.59-9.24,0.96-13.92,1.24c-4.75,0.26-9.49,0.5-14.23,0.7c-4.73,0.2-9.46,0.33-14.15,0.36c-4.7,0.03-9.37-0.05-13.98-0.36
					c-1.16-0.06-2.29-0.19-3.44-0.28c-1.14-0.11-2.26-0.26-3.4-0.39c-2.23-0.34-4.46-0.68-6.59-1.23c-1.09-0.23-2.11-0.58-3.16-0.87
					c-1-0.37-2.04-0.68-2.98-1.12c-0.99-0.38-1.88-0.88-2.8-1.35l-1.3-0.78c-0.43-0.27-0.81-0.58-1.22-0.86
					c-1.58-1.19-2.96-2.58-4.12-4.16c-1.18-1.57-2.06-3.39-2.8-5.31l-0.27-0.73c-0.09-0.24-0.18-0.48-0.25-0.74l-0.44-1.52
					c-0.14-0.51-0.23-1.04-0.36-1.56l-0.17-0.79c-0.06-0.26-0.09-0.54-0.13-0.8l-0.26-1.62c-0.06-0.52-0.12-1.01-0.15-1.51
					c-0.07-1-0.06-2.01,0-3.01c0.14-2,0.56-3.99,1.22-5.93c0.68-1.93,1.57-3.83,2.7-5.62c2.23-3.61,5.22-6.88,8.59-9.77
					c3.38-2.9,7.15-5.45,11.11-7.69c3.97-2.24,8.14-4.19,12.43-5.89c4.29-1.68,8.7-3.14,13.18-4.35c4.48-1.2,9.02-2.23,13.58-3.23
					c4.56-0.98,9.16-1.92,13.81-2.82l7.01-1.37c2.35-0.47,4.72-0.92,7.11-1.5c-4.76-1.18-9.62-1.7-14.48-1.89
					c-1.22-0.04-2.44-0.07-3.65-0.06c-1.22-0.01-2.44,0.03-3.66,0.08c-2.44,0.11-4.87,0.3-7.29,0.59c-2.42,0.29-4.84,0.68-7.24,1.14
					c-2.4,0.46-4.78,1.04-7.15,1.66c-4.74,1.24-9.43,2.74-14.03,4.5c-4.6,1.77-9.11,3.83-13.47,6.24
					c-4.35,2.42-8.56,5.19-12.45,8.48c-3.88,3.28-7.47,7.08-10.31,11.57c-1.42,2.23-2.61,4.67-3.53,7.23c-0.17,0.49-0.33,1-0.49,1.5
					c-17.97-6.17-30.67-16.93-37.75-32.02c-14.9-31.77-1.21-74.06,2.51-84.31c0.93,0.11,1.87,0.19,2.83,0.22
					c0.27,0.01,0.55,0.01,0.82,0.01c8.77,0,16.59-3.57,23.24-10.63c1.24-1.31,2.43-2.74,3.58-4.27l0.79,0.42
					c0.74,0.39,1.49,0.71,2.24,1.06c0.75,0.36,1.51,0.66,2.27,0.95c3.05,1.21,6.16,2.12,9.3,2.87c6.29,1.46,12.69,2.03,19.03,2.06
					c1.59-0.01,3.17-0.04,4.75-0.08c1.58-0.1,3.15-0.23,4.72-0.36l2.35-0.21c0.78-0.07,1.56-0.21,2.34-0.32
					c1.56-0.22,3.1-0.47,4.65-0.71c3.09-0.52,6.14-1.22,9.11-2.23c1.47-0.56,2.92-1.22,4.33-1.96c1.41-0.75,2.8-1.56,4.12-2.61
					c-1.67-0.39-3.26-0.55-4.82-0.65c-1.57-0.1-3.1-0.08-4.61-0.03c-0.76-0.02-1.52,0.01-2.27,0.03c-0.75,0.04-1.5,0.07-2.25,0.13
					c-0.75,0.06-1.49,0.14-2.23,0.22l-1.11,0.12l-1.12,0.05c-1.49,0.08-2.97,0.14-4.45,0.22c-0.74,0.03-1.48,0.11-2.22,0.1l-2.22,0
					c-1.48-0.01-2.95,0.03-4.42,0.01c-1.47-0.08-2.94-0.15-4.4-0.21c-5.85-0.38-11.64-1.1-17.24-2.4c-2.79-0.68-5.58-1.39-8.23-2.37
					c-1.29-0.43-2.52-0.92-3.75-1.43c2.35-4.27,4.47-9.14,6.38-14.65c2.29,0.64,4.76,1.04,7.41,1.2c1.44,0.09,2.82,0.13,4.16,0.13
					c9.69,0,16.72-2.32,21.39-7.05c0.31-0.31,0.6-0.63,0.89-0.97c3.62,3.73,7.43,7.21,11.27,10.59c2.36,2.07,4.73,4.09,7.1,6.11
					c2.39,2.04,4.83,4.03,7.31,5.98c4.97,3.87,10.06,7.69,15.71,10.63c2.81,1.48,5.72,2.8,8.73,3.85c3.02,1.04,6.11,1.89,9.32,2.28
					c-2.48-2.08-4.99-3.92-7.46-5.78l-7.37-5.48l-7.34-5.41c-2.46-1.79-4.89-3.62-7.27-5.54c-2.38-1.91-4.73-3.87-7.04-5.87
					c-2.34-2.02-4.67-4.06-6.96-6.1c-4.57-4.1-9.01-8.27-13.03-12.74c-1.02-1.11-1.98-2.25-2.95-3.39
					c-0.93-1.16-1.88-2.32-2.75-3.52c-1.76-2.39-3.42-4.83-4.84-7.39c-2.87-5.04-4.93-10.56-5.79-16.14
					c-0.88-5.57-0.39-11.2,1.88-15.96c1.15-2.37,2.67-4.52,4.62-6.38c1.95-1.89,4.1-3.46,6.44-4.49l0.88-0.37
					c0.29-0.13,0.6-0.21,0.9-0.31c0.6-0.23,1.23-0.35,1.84-0.51c1.25-0.24,2.52-0.44,3.83-0.43l0.49-0.01l0.49,0.02
					c0.33,0.02,0.66,0.02,0.99,0.04c0.66,0.07,1.32,0.11,1.99,0.23c1.33,0.18,2.66,0.52,3.99,0.9c2.65,0.81,5.28,1.91,7.84,3.26
					c2.56,1.35,5.05,2.9,7.47,4.6c2.42,1.7,4.78,3.53,7.07,5.47l1.8,1.51c0.62,0.51,1.23,1.04,1.86,1.52
					c1.25,0.99,2.5,1.99,3.78,2.93c5.08,3.85,10.36,7.34,15.73,10.66c5.38,3.32,10.88,6.4,16.47,9.32c1.4,0.73,2.81,1.43,4.21,2.15
					c1.42,0.69,2.83,1.4,4.26,2.07l2.14,1.01l1.91,0.94c0.62,0.33,1.23,0.68,1.85,1.02l1.79,1.1c4.68,3.07,8.7,7.09,11.78,11.79
					c1.54,2.34,2.86,4.85,3.93,7.46C777.12,249.16,777.6,250.49,778,251.83z M823.9,102.71v14.95v0l-0.82,1.93
					c-0.3,0.67-0.61,1.35-0.92,2.02c-0.63,1.35-1.29,2.69-1.98,4c-1.39,2.63-2.89,5.21-4.53,7.65c-3.27,4.91-7.06,9.38-11.45,13.08
					c-2.19,1.86-4.54,3.5-7.02,4.92c-1.24,0.71-2.52,1.37-3.83,1.94c-1.31,0.59-2.64,1.13-4.02,1.58c-1.37,0.46-2.77,0.85-4.18,1.25
					l-4.31,1.24c-1.47,0.4-2.96,0.88-4.5,1.33c-0.77,0.25-1.55,0.48-2.35,0.76c-0.8,0.27-1.61,0.55-2.44,0.91
					c1.5,0.98,3.09,1.67,4.72,2.2c0.41,0.13,0.82,0.26,1.23,0.37c0.41,0.1,0.83,0.21,1.25,0.29c0.67,0.15,1.35,0.26,2.04,0.35
					c2.27,13.14,2.5,34.94-11.18,60.44c-1.25-0.99-2.54-1.92-3.88-2.79c-0.72-0.44-1.45-0.89-2.18-1.33
					c-0.75-0.41-1.49-0.82-2.24-1.21l-2.27-1.1l-2.07-0.96c-1.39-0.63-2.75-1.32-4.13-1.97c-1.36-0.68-2.73-1.35-4.09-2.06
					c-5.43-2.79-10.78-5.75-15.98-8.92c-5.2-3.17-10.3-6.5-15.15-10.1c-1.22-0.89-2.41-1.81-3.6-2.74c-0.6-0.46-1.17-0.94-1.75-1.41
					l-1.78-1.46c-2.47-2.05-5.03-4.01-7.71-5.85c-0.13-0.09-0.26-0.17-0.39-0.26c1.3-0.77,2.47-1.84,3.26-3.18
					c0.22-0.4,0.45-0.79,0.59-1.23c0.07-0.22,0.16-0.42,0.22-0.64c0.05-0.22,0.1-0.44,0.14-0.66c0.14-0.88,0.15-1.81-0.19-2.66
					c-1.25,1.26-2.35,2.08-3.44,2.81c-1.09,0.71-2.16,1.28-3.31,1.84c-0.57,0.3-1.17,0.57-1.79,0.84c-1.15-0.68-2.31-1.33-3.51-1.95
					c-2.94-1.53-6.07-2.82-9.36-3.78c-1.66-0.46-3.35-0.86-5.09-1.09c-0.86-0.15-1.76-0.2-2.64-0.28c-0.44-0.03-0.89-0.03-1.34-0.04
					l-0.67-0.02l-0.68,0.02c-1.8,0.02-3.61,0.29-5.39,0.66c-0.88,0.23-1.78,0.43-2.63,0.75c-0.43,0.16-0.87,0.28-1.29,0.46
					l-1.26,0.54c-3.33,1.5-6.23,3.7-8.7,6.15c-0.81,0.79-1.57,1.64-2.29,2.53c-2.82-1.17-5.9-1.73-9.19-1.67
					c-0.27,0-0.55,0.01-0.82,0.03c-3.06,0.15-5.97,0.86-8.69,2.11c-2.05-2.36-4.58-4.39-7.7-5.94h0c-4.08-2.04-8.92-3.08-14.39-3.09
					c-0.03,0-0.06,0-0.09,0c-16.26,0-29.29,11.6-36.68,32.67l-0.75,2.12c-8.02-15.83-11.53-32.77-10.44-50.49
					c0.98-15.97,5.53-26.63,5.58-26.72l5.49-12.54l-8.83,5.7c5.17-13.59,13.25-24.33,24.09-32c10.13-7.17,19.05-8.85,19.13-8.87
					l12.11-2.13l-10.95-5.6c-2.28-1.17-4.74-2-7.07-2.58c15.72-10.29,33.18-15.65,52.01-15.97c14.64-0.24,25.34,2.82,27.78,3.59
					c0.01,0.43,0.02,0.85,0.04,1.28c0.09,1.78,0.26,3.55,0.56,5.3c0.3,1.75,0.69,3.5,1.32,5.2c1.04-3.43,1.97-6.71,2.92-9.95
					c0.95-3.24,1.91-6.41,2.91-9.53c1.01-3.12,2.05-6.2,3.33-9.17c1.25-2.98,2.71-5.83,4.31-8.57c3.24-5.46,7.24-10.34,11.94-14.4
					c1.02-0.88,2.07-1.71,3.15-2.52l-7.34,12.38l14.09-8.47l0.6-0.36l0.68-0.39c0.46-0.26,0.94-0.51,1.42-0.76
					c0.96-0.5,1.94-0.97,2.94-1.43c1.99-0.91,4.03-1.73,6.11-2.47c4.15-1.48,8.42-2.61,12.75-3.36c4.33-0.76,8.71-1.14,13.09-1.11
					c4.38,0.02,8.74,0.48,13.03,1.31c8.58,1.7,16.81,5.05,24.3,9.71c3.98,2.46,7.75,5.26,11.32,8.33L800,31.46l7.45,8.5l0.43,0.49
					l0.46,0.55l0.93,1.13c0.61,0.77,1.22,1.55,1.81,2.34c1.19,1.59,2.34,3.21,3.44,4.87c2.21,3.31,4.26,6.74,6.13,10.26
					c3.74,7.04,6.76,14.45,8.86,22.09c2.11,7.63,3.27,15.5,3.33,23.37c0.04,4.23-0.26,8.45-0.87,12.63l-0.48-0.9L823.9,102.71z"/>
				<path class="st3" d="M685.1,135.31c-0.55-0.32-1.09-0.65-1.64-0.99c-0.54-0.35-1.07-0.74-1.64-1.13
					c-1.11-0.82-2.23-1.79-3.69-2.9c-0.34,1.8,0.07,3.57,0.91,5.17c0.44,0.79,0.98,1.53,1.63,2.18c0.65,0.64,1.39,1.21,2.19,1.66
					c1.6,0.89,3.41,1.35,5.17,1.32c0.88-0.01,1.75-0.14,2.59-0.39c0.84-0.26,1.66-0.61,2.37-1.2c-1.63-0.77-3.01-1.35-4.32-1.94
					C687.38,136.5,686.21,135.93,685.1,135.31z"/>
				<path class="st3" d="M595.95,143.03c-0.57,0.4-1.1,0.78-1.64,1.13c-0.54,0.35-1.08,0.68-1.64,0.99
					c-1.11,0.62-2.29,1.19-3.58,1.78c-1.3,0.6-2.68,1.17-4.32,1.94c0.72,0.59,1.54,0.94,2.37,1.2c0.84,0.25,1.71,0.37,2.59,0.39
					c1.76,0.03,3.57-0.43,5.17-1.32c0.8-0.45,1.54-1.01,2.19-1.66c0.65-0.65,1.2-1.39,1.63-2.18c0.83-1.6,1.24-3.38,0.91-5.17
					C598.18,141.23,597.06,142.2,595.95,143.03z"/>
				<path class="st3" d="M756.6,133.36c-3-2.34-5.95-4.69-8.82-7.1c-5.74-4.81-11.2-9.8-16.14-15.17c-2.46-2.7-4.79-5.48-6.97-8.38
					c-0.88-1.24-1.78-2.48-2.61-3.76l0.18-0.93c0.09-0.44,0.17-0.87,0.28-1.31c0.19-0.88,0.42-1.76,0.63-2.64
					c0.43-1.77,0.97-3.51,1.51-5.25c1.1-3.48,2.44-6.87,3.96-10.14c1.53-3.27,3.28-6.42,5.27-9.39c0.52-0.72,1-1.48,1.54-2.19
					l1.63-2.11l1.74-2.01c0.58-0.67,1.22-1.27,1.83-1.92c2.51-2.48,5.25-4.72,8.24-6.64c3-1.88,6.23-3.4,9.59-4.67l2.58-0.81
					c0.43-0.13,0.86-0.28,1.29-0.4l1.32-0.31c0.88-0.21,1.76-0.45,2.65-0.69c0.9-0.18,1.79-0.39,2.7-0.61l1.36-0.35
					c0.45-0.12,0.91-0.2,1.37-0.3c0.92-0.2,1.85-0.43,2.78-0.68c0.23-0.06,0.47-0.14,0.7-0.2c0.24-0.05,0.47-0.1,0.71-0.16
					c0.47-0.11,0.95-0.22,1.43-0.35c0.96-0.25,1.93-0.54,2.92-0.91c-0.93-0.43-1.89-0.79-2.86-1.11c-0.48-0.16-0.97-0.31-1.46-0.45
					c-0.24-0.08-0.49-0.14-0.73-0.21c-0.25-0.06-0.49-0.1-0.74-0.15c-0.99-0.18-1.99-0.34-2.99-0.48c-0.5-0.06-1.01-0.14-1.51-0.17
					l-1.51-0.04c-1.01-0.01-2.03-0.02-3.05,0.01c-1.01,0.09-2.02,0.21-3.03,0.34l-1.52,0.21c-0.5,0.1-1,0.22-1.5,0.32
					c-1,0.23-2,0.44-3,0.68c-3.97,1.1-7.84,2.64-11.52,4.59c-3.63,2.04-7.05,4.48-10.12,7.29c-0.75,0.72-1.54,1.41-2.25,2.16
					l-2.12,2.28l-1.98,2.4c-0.65,0.81-1.24,1.65-1.85,2.49c-2.38,3.37-4.42,6.95-6.15,10.65c-1.73,3.7-3.1,7.54-4.24,11.43
					c-0.11,0.4-0.22,0.8-0.32,1.2c-0.54-1.26-1.05-2.55-1.54-3.86c-1.28-3.5-2.17-7.15-3.08-10.99c-0.22,0.95-0.39,1.92-0.56,2.89
					c-0.07,0.49-0.18,0.98-0.22,1.47c-0.04,0.49-0.07,0.98-0.11,1.48c-0.03,0.49-0.07,0.99-0.09,1.49c-0.03,0.5-0.05,1-0.03,1.49
					c0.03,0.99,0.08,1.99,0.12,3c0.36,3.99,1.21,7.98,2.57,11.8c0.73,1.88,1.45,3.79,2.39,5.58c0.85,1.85,1.92,3.56,2.95,5.3
					c2.17,3.41,4.66,6.59,7.36,9.55l2.07,2.17l2.16,2.07c0.72,0.69,1.48,1.33,2.23,1.99c0.38,0.32,0.75,0.66,1.13,0.97l1.16,0.93
					c0.78,0.62,1.55,1.24,2.35,1.82c0.79,0.59,1.59,1.18,2.41,1.73c0.82,0.55,1.62,1.12,2.46,1.65l2.51,1.55
					c3.39,2.01,6.89,3.79,10.51,5.3c1.81,0.75,3.64,1.45,5.5,2.06c1.86,0.6,3.75,1.15,5.69,1.51l-4.63-3.53
					C759.61,135.69,758.09,134.54,756.6,133.36z"/>
				<path class="st3" d="M797.85,74.76c-0.12-0.58-0.27-1.15-0.42-1.71c-0.16-0.57-0.29-1.14-0.46-1.7
					c-0.36-1.12-0.7-2.23-1.12-3.32c-1.61-4.38-3.76-8.49-6.29-12.29c-1.26-1.9-2.64-3.71-4.09-5.45c-0.72-0.87-1.49-1.7-2.25-2.54
					c-0.79-0.81-1.58-1.61-2.4-2.39c3.71,8.2,7.05,16.25,8.81,24.5c0.9,4.11,1.44,8.24,1.53,12.34c0.05,2.05-0.01,4.1-0.19,6.13
					c-0.07,1.02-0.2,2.03-0.33,3.04l-0.22,1.51l-0.28,1.51c-0.78,4.01-1.99,7.95-3.56,11.79c-0.78,1.92-1.68,3.8-2.63,5.67
					c-0.97,1.86-2,3.7-3.11,5.51c-2.21,3.62-4.71,7.12-7.41,10.53c-2.71,3.41-5.6,6.72-8.73,9.96c2.09-0.87,4.07-1.98,6-3.17
					c1.93-1.2,3.78-2.52,5.57-3.93c3.57-2.83,6.87-6.05,9.82-9.62c1.47-1.79,2.86-3.66,4.12-5.62c1.29-1.95,2.43-4,3.48-6.11
					c2.08-4.22,3.62-8.76,4.54-13.43c0.46-2.34,0.74-4.71,0.87-7.09c0.12-2.38,0.1-4.77-0.13-7.13
					C798.73,79.4,798.42,77.05,797.85,74.76z"/>
			</g>
		</g>
		<g>
			<path class="st5" d="M434.17,369.71c-1.85-13.63-8.89-25.72-19.83-34.05l0,0c-22.58-17.2-54.95-12.81-72.15,9.77
				c-8.33,10.94-11.9,24.47-10.06,38.1c1.85,13.63,8.89,25.72,19.83,34.05c9.28,7.07,20.42,10.71,31.9,10.52
				c2.06-0.03,4.13-0.19,6.2-0.47c13.63-1.85,25.72-8.89,34.05-19.83C432.45,396.87,436.02,383.34,434.17,369.71z"/>
			<path class="st5" d="M283.65,326.25l21.91-5.82c16.51-22.37,39.1-40.22,65.9-50.98c14.85-5.97,23.24-22.38,19.51-38.17
				c-2.23-9.43-8.44-17.4-17.05-21.86c-8.49-4.4-18.43-4.89-27.26-1.34c-36.45,14.66-68.37,39.03-92.31,70.47
				c-4.05,5.32-7.83,10.81-11.36,16.44l30.39-4.51L283.65,326.25z"/>
			<path class="st5" d="M269.15,351.83l-10.89-37.89l-27.9,4.14c-10.11,21.47-16.69,44.5-19.39,68.19
				c-1.07,9.45,2.04,18.9,8.54,25.92c6.43,6.94,15.47,10.79,24.89,10.64c0.24,0,0.48-0.01,0.71-0.02
				c16.22-0.6,29.81-13.05,31.61-28.96c1.9-16.78,6.53-32.81,13.46-47.61L269.15,351.83z"/>
			<path class="st5" d="M343.16,168.72c17.16-4.44,27.77-22.19,23.66-39.57c-2.06-8.73-7.44-16.1-15.12-20.73
				c-7.7-4.64-16.73-5.95-25.44-3.69c-63.39,16.46-120.25,54.35-160.1,106.68s-61.24,117.22-60.25,182.71
				c0.14,8.99,3.8,17.35,10.33,23.54c6.34,6.01,14.58,9.22,23.28,9.09c0.24,0,0.48-0.01,0.73-0.02
				c17.85-0.66,32.14-15.62,31.85-33.34C170.39,287.59,240.73,195.21,343.16,168.72z"/>
			<path class="st5" d="M314.84,67.17c16.74-3.62,28.07-19.65,25.79-36.5l-0.07-0.56c-1.22-9.04-6.21-17.23-13.68-22.47
				c-7.45-5.23-16.82-7.14-25.71-5.23c-88.72,19.07-167.95,69.47-223.11,141.9C22.91,216.75-4.59,306.54,0.63,397.14
				c0.52,9.08,4.85,17.61,11.88,23.4c6.04,4.98,13.69,7.62,21.44,7.49c1.28-0.02,2.57-0.12,3.85-0.29l0.56-0.08
				c16.86-2.28,29.31-17.47,28.34-34.57C58,239.72,164.68,99.6,314.84,67.17z"/>
		</g>
	</g>
	<path class="st0" d="M898.46,65.98c-13.94,1.42-26.13,16.62-26.13,16.62s11.66-2.7,22.07,0.62c9.36,2.98,17.31,4.2,20.99-1.73
		C918.78,76.02,912.4,64.56,898.46,65.98z"/>
	<path class="st0" d="M870.23,43.99c-6.15,4.54-7.65,15.07-7.65,15.07s4.72-4.51,10.54-5.85c5.22-1.2,9.3-2.84,9.38-6.65
		C882.57,43.05,876.38,39.44,870.23,43.99z"/>
	<path class="st0" d="M461.4,30.98c13.94,1.42,26.13,16.62,26.13,16.62s-11.66-2.7-22.07,0.62c-9.36,2.98-17.31,4.2-20.99-1.73
		C441.08,41.02,447.46,29.56,461.4,30.98z"/>
	<path class="st0" d="M489.63,8.99c6.15,4.54,7.65,15.07,7.65,15.07s-4.72-4.51-10.54-5.85c-5.22-1.2-9.3-2.84-9.38-6.65
		C477.29,8.05,483.47,4.44,489.63,8.99z"/>
</g>
</svg>
