<?xml version="1.0" encoding="utf-8"?>
<!-- Generator: Adobe Illustrator 25.2.0, SVG Export Plug-In . SVG Version: 6.00 Build 0)  -->
<svg version="1.1" id="Capa_1" xmlns="http://www.w3.org/2000/svg" xmlns:xlink="http://www.w3.org/1999/xlink" x="0px" y="0px"
	 viewBox="0 0 90.99 91.06" style="enable-background:new 0 0 90.99 91.06;" xml:space="preserve">
<style type="text/css">
	.st0{fill:#E59122;}
</style>
<path class="st0" d="M90.51,84.05l-7.28-10.4l-6.62-28.69c-0.82-3.57-2.83-6.44-5.95-8.54L53,24.57c0.88-0.44,1.49-1.34,1.49-2.39
	c0-1.47-1.19-2.67-2.67-2.67h-0.75L60.86,4.1c0.59-0.93,0.55-2.13-0.1-3.01c-0.65-0.89-1.78-1.28-2.85-0.99L41.78,4.46l-9.7,0.05
	c-1.03,0.01-1.97,0.6-2.4,1.54c-0.44,0.93-0.29,2.04,0.37,2.83l8.83,10.63c-1.46,0.01-2.65,1.2-2.65,2.67
	c0,1.11,0.68,2.07,1.66,2.47L20.33,36.42c-3.12,2.1-5.12,4.97-5.95,8.54L7.76,73.65l-7.28,10.4c-0.59,0.84-0.64,1.95-0.13,2.85
	c0.51,0.9,1.48,1.42,2.51,1.35l13.56-0.97c5.53,1.47,16.29,3.8,29.08,3.8s23.54-2.32,29.08-3.8l13.56,0.97
	c1.03,0.07,2-0.45,2.51-1.35C91.15,86,91.09,84.89,90.51,84.05L90.51,84.05z M42.16,9.79c0.23,0,0.46-0.03,0.68-0.09l9.83-2.66
	l-7.47,11.75l-7.45-8.98L42.16,9.79z M74.5,81.92c-0.3-0.02-0.6,0.01-0.89,0.09c-5.13,1.39-15.61,3.73-28.12,3.73
	S22.51,83.39,17.37,82c-0.28-0.07-0.59-0.11-0.89-0.09l-8.42,0.6l4.36-6.24c0.2-0.28,0.34-0.6,0.41-0.93l6.74-29.19
	c0.52-2.24,1.73-3.97,3.72-5.31l22.17-14.87c0.01,0,0.02,0,0.02,0c0.01,0,0.02,0,0.03,0l22.17,14.87c1.99,1.33,3.21,3.07,3.72,5.31
	l6.74,29.19c0.08,0.33,0.22,0.65,0.41,0.93l4.36,6.24L74.5,81.92z M74.5,81.92"/>
</svg>
