<?xml version="1.0" encoding="utf-8"?>
<!-- Generator: Adobe Illustrator 25.2.0, SVG Export Plug-In . SVG Version: 6.00 Build 0)  -->
<svg version="1.1" id="Capa_1" xmlns="http://www.w3.org/2000/svg" xmlns:xlink="http://www.w3.org/1999/xlink" x="0px" y="0px"
	 viewBox="0 0 92.72 82.13" style="enable-background:new 0 0 92.72 82.13;" xml:space="preserve">
<style type="text/css">
	.st0{fill:#E59122;}
</style>
<g>
	<g>
		<path class="st0" d="M87.41,31.9c-2.96-3.6-6.95-6.24-11.38-7.57c-1.07-6.42-4.27-12.31-9.13-16.74C61.52,2.7,54.54,0,47.27,0
			c-7.22,0-14.02,2.6-19.36,7.36c-1.87-0.72-3.87-1.1-5.88-1.1c-9,0-16.32,7.32-16.32,16.32c0,1.11,0.11,2.22,0.33,3.3
			C2.18,29.8,0,35.1,0,40.66c0,4.39,1.33,8.59,3.86,12.16c2.15,3.04,5.02,5.43,8.37,6.98c2.29,12.06,12.92,20.96,25.35,20.96
			c3.4,0,6.68-0.64,9.77-1.91c3.05,2.13,6.7,3.28,10.45,3.28c4.22,0,8.33-1.47,11.58-4.14c2.74-2.25,4.77-5.26,5.84-8.6
			c10.24-2.64,17.5-11.9,17.5-22.64C92.72,41.34,90.83,36.07,87.41,31.9L87.41,31.9z M72.54,64.41c-1.09,0.2-1.95,1.03-2.18,2.11
			c-1.25,5.89-6.53,10.17-12.57,10.17c-3.05,0-6-1.09-8.32-3.06c-0.5-0.43-1.13-0.65-1.76-0.65c-0.41,0-0.81,0.09-1.19,0.28
			c-2.8,1.37-5.81,2.06-8.95,2.06c-10.24,0-18.93-7.65-20.21-17.79c-0.13-1-0.8-1.85-1.75-2.21C9.53,53.06,5.43,47.16,5.43,40.66
			c0-4.55,1.98-8.87,5.42-11.85c0.82-0.71,1.14-1.85,0.81-2.89c-0.35-1.08-0.52-2.2-0.52-3.34c0-6,4.88-10.88,10.88-10.88
			c1.79,0,3.57,0.45,5.14,1.29c1.06,0.57,2.37,0.37,3.22-0.49c4.49-4.55,10.49-7.06,16.89-7.06c12.25,0,22.4,9.18,23.61,21.35
			c0.12,1.18,0.99,2.15,2.15,2.39c8.27,1.72,14.27,9.11,14.27,17.57C87.29,55.45,81.08,62.88,72.54,64.41L72.54,64.41z M72.54,64.41
			"/>
		<path class="st0" d="M33.51,44.35c-1.15-0.96-2.86-0.81-3.83,0.34c-0.15,0.17-0.3,0.33-0.46,0.48c-0.83,0.74-1.91,1.12-3.19,1.12
			c-3.52,0-6.38-2.86-6.38-6.38s2.86-6.38,6.38-6.38c1.28,0,2.51,0.38,3.57,1.09c1.24,0.84,2.93,0.51,3.77-0.73
			c0.84-1.24,0.51-2.93-0.73-3.77c-1.96-1.32-4.24-2.02-6.61-2.02c-6.51,0-11.81,5.3-11.81,11.81s5.3,11.81,11.81,11.81
			c2.62,0,4.97-0.86,6.8-2.49c0.36-0.32,0.7-0.67,1.01-1.04C34.81,47.03,34.66,45.32,33.51,44.35L33.51,44.35z M33.51,44.35"/>
		<path class="st0" d="M69.17,54.07c-0.01,0-0.02,0-0.04,0c-0.36,0-0.73,0.01-1.11,0.01c0.43-0.6,0.91-1.28,1.45-2.05
			c0.91-1.29,1.48-2.49,1.75-3.65c0.08-0.35,0.13-0.74,0.13-1.1c0-3.26-2.65-5.91-5.91-5.91c-2.82,0-5.26,2-5.8,4.77
			c-0.29,1.47,0.67,2.9,2.14,3.19c1.47,0.29,2.9-0.67,3.19-2.14c0.04-0.19,0.21-0.38,0.47-0.38c0.23,0,0.49,0.2,0.46,0.45
			c-0.08,0.3-0.31,0.84-0.88,1.66c-1.96,2.8-3.13,4.33-3.76,5.15c-0.83,1.09-1.54,2.02-1.11,3.45c0.26,0.86,0.93,1.54,1.79,1.82
			c0.36,0.12,0.58,0.19,3.14,0.19c0.98,0,2.31-0.01,4.11-0.03c1.5-0.02,2.7-1.25,2.68-2.75C71.86,55.26,70.65,54.07,69.17,54.07
			L69.17,54.07z M69.17,54.07"/>
		<path class="st0" d="M46.51,28.15c-6.51,0-11.81,5.3-11.81,11.81s5.3,11.81,11.81,11.81c6.51,0,11.81-5.3,11.81-11.81
			S53.02,28.15,46.51,28.15L46.51,28.15z M46.51,46.35c-3.52,0-6.38-2.86-6.38-6.38c0-3.52,2.86-6.38,6.38-6.38
			c3.52,0,6.38,2.86,6.38,6.38C52.89,43.48,50.03,46.35,46.51,46.35L46.51,46.35z M46.51,46.35"/>
	</g>
</g>
</svg>
