<?xml version="1.0" encoding="utf-8"?>
<!-- Generator: Adobe Illustrator 25.2.0, SVG Export Plug-In . SVG Version: 6.00 Build 0)  -->
<svg version="1.1" id="Capa_1" xmlns="http://www.w3.org/2000/svg" xmlns:xlink="http://www.w3.org/1999/xlink" x="0px" y="0px"
	 viewBox="0 0 392.49 535.35" style="enable-background:new 0 0 392.49 535.35;" xml:space="preserve">
<style type="text/css">
	.st0{fill:#D4D4D4;}
	.st1{fill:#E4E4E4;}
	.st2{fill:#D6D6D6;}
	.st3{fill:#F2F2F2;}
	.st4{fill:#7B7B7B;}
	.st5{fill:#CCCCCC;}
	.st6{fill:#FFFFFF;}
	.st7{fill:#B6B6B6;}
</style>
<g>
	<ellipse class="st0" cx="143.11" cy="519.93" rx="132.67" ry="15.41"/>
	<ellipse class="st0" cx="344.59" cy="515.53" rx="47.89" ry="7.36"/>
	<g>
		<g>
			<g>
				<path class="st1" d="M121.87,456.41c-1.9-0.24-3.78-0.52-5.63-0.84c-4.13-0.73-8.13-1.66-12.01-2.78
					c-0.12-0.03-0.24-0.07-0.36-0.1c-0.94-0.28-1.88-0.57-2.81-0.87c-5.61-1.8-10.93-4.02-15.9-6.64
					c-5.07-2.67-9.73-5.74-13.85-9.12c-0.36-0.31-0.72-0.63-1.09-0.94l-2.24-1.92l0.4,2.33c1.76,10.31,3.53,20.46,5.24,29.65
					c0.24,1.31,0.49,2.61,0.73,3.88c3.14,16.53,6.02,29.37,8.18,33.44c0.06,0.1,0.11,0.2,0.16,0.3c2.69,4.57,7.86,8.04,14.19,9.53
					c0.54,0.13,1.08,0.24,1.62,0.33c1.62,0.28,3.25,0.42,4.86,0.42c0,0,0,0,0,0c0,0,0,0,0,0c0.02,0,0.04,0,0.06,0
					c4.42-0.01,8.66-1.08,12.09-3.11c0.23-0.14,0.46-0.28,0.68-0.42c2.4-1.57,7.26-7.49,12.89-29.58c2.24-8.8,3.84-17.31,4.6-21.6
					l0.17-0.96l-1.35-0.06C128.89,457.17,125.35,456.86,121.87,456.41z"/>
			</g>
			<g>
				<path class="st1" d="M43.67,220.96l1.26,1.15l0.17-1.7c0.3-3.06,0.68-6.27,1.14-9.53c0.4-2.79,0.84-5.55,1.31-8.2l0.75-4.08
					l0.39-2.03l0.43-2.08c1.24-5.72,2.97-11.18,5.12-16.25c2.21-5.23,5.02-10.26,8.34-14.93c1.25-1.76,2.57-3.46,3.96-5.1
					c2.31-2.73,4.8-5.3,7.45-7.66c3.18-2.83,6.61-5.41,10.22-7.71c1.21-0.77,2.43-1.5,3.68-2.2c0.23-0.13,0.47-0.26,0.71-0.39
					c0.73-0.4,1.51-0.8,2.36-1.23l2.36-1.18l0,0l0,0l-2.6-0.42c-1.23-0.2-2.28-0.36-3.19-0.48l-6.98-0.97l5.52-4.33
					c5.08-3.98,10.76-7.17,16.89-9.47c5.81-2.18,12.12-3.63,18.76-4.29c4.79-0.48,9.8-0.56,14.89-0.24l1.61,0.1l-0.83-1.39
					c-2.25-3.77-6.1-9.34-11.66-14.46c-8.07-7.42-17.25-11.77-27.4-13c-3.97-0.48-8.09-0.48-12.35-0.01l-1.65,0.19l8.56,9.46
					l-7.88-0.92c-0.15-0.02-15.29-1.64-31.15,4.26c-2.3,0.86-4.5,1.82-6.59,2.89c-1.05,0.54-2.07,1.1-3.07,1.69
					c-0.5,0.29-0.99,0.6-1.48,0.9c-0.97,0.62-1.92,1.26-2.84,1.93c-0.46,0.33-0.91,0.68-1.36,1.02
					c-9.84,7.66-16.57,18.54-20.08,32.51l-0.52,2.06l9.95-6.28l-2.28,7.63c-0.04,0.13-3.82,13.11-2.68,29.34
					C24.23,194.27,31.21,209.54,43.67,220.96z"/>
			</g>
			<g>
				<path class="st1" d="M56.3,341.1l2.19-6.06l-3.69,5.28c-12.14,17.38-17.6,32.19-15.78,42.84c0.8,4.67,2.91,8.55,6.45,11.82
					c0.51,0.47,1.04,0.92,1.6,1.36l1.62,1.27l-0.25-2.05c-0.1-0.85-0.19-1.62-0.25-2.33c-0.02-0.24-0.04-0.46-0.06-0.69
					c-0.02-0.38-0.04-0.75-0.07-1.13c-0.07-1.06-0.13-2.07-0.1-3.09c0-0.37,0-0.75,0.01-1.12c0-0.77,0-1.55,0.04-2.31
					c0.01-0.25,0.02-0.5,0.04-0.75l0.22-4.08l0.34-4.09c0.54-5.55,1.35-10.99,2.41-16.19h0c1.15-5.58,2.65-11.1,4.47-16.43
					C55.76,342.62,56.03,341.86,56.3,341.1z"/>
			</g>
			<g>
				<path class="st1" d="M311.36,155.96c-0.07-0.46-0.15-0.91-0.23-1.37c-0.58-3.19-1.4-6.37-2.46-9.46
					c-0.61-1.79-1.3-3.53-2.04-5.18c-0.39-0.86-0.79-1.69-1.2-2.49c-0.21-0.41-0.43-0.81-0.65-1.21l-5.52-9.14l12.75,5.5l-1.02-2.07
					c-1.9-3.88-4.03-7.45-6.33-10.62c-4.33-6.02-9.54-11.02-15.48-14.85c-1.52-0.97-3.08-1.87-4.68-2.69
					c-0.01-0.01-0.02-0.01-0.04-0.02c-1.59-0.81-3.2-1.54-4.84-2.19c-3.3-1.3-6.79-2.31-10.35-3.01c-1.74-0.34-3.52-0.61-5.32-0.8
					c-1.8-0.19-3.62-0.31-5.45-0.35c-0.46-0.01-0.91-0.01-1.37-0.01c-1.14,0-2.27,0.03-3.37,0.09c-0.22,0.01-0.45,0.02-0.67,0.04
					c-0.92,0.06-1.82,0.14-2.68,0.24c-0.44,0.05-0.88,0.11-1.32,0.17l-9,1.6l6.97-8.88l-2.16,0.22c-0.29,0.03-0.57,0.06-0.87,0.09
					c-0.01,0-0.02,0-0.03,0c-0.66,0.07-1.33,0.15-1.99,0.24c-0.37,0.05-0.75,0.1-1.13,0.14c-0.66,0.08-1.33,0.18-1.99,0.27
					c-0.23,0.03-0.46,0.07-0.69,0.1c-0.16,0.02-0.31,0.04-0.47,0.07l-3.11,0.53c-1.84,0.36-4,0.81-6.13,1.35
					c-8.79,2.2-16.39,5.53-22.59,9.9c-5.92,4.13-10.85,9.54-14.41,15.77c-0.51,0.89-0.99,1.8-1.44,2.72
					c-0.65,1.31-1.26,2.69-1.82,4.12c-0.93,2.39-1.72,4.94-2.35,7.61c-0.5,1.9-1.04,3.95-1.67,6.05c-0.29,1.02-0.62,2.05-0.96,3.09
					c-0.14,0.41-0.28,0.85-0.45,1.32c-0.15-0.4-0.29-0.83-0.44-1.31c-0.32-1.11-0.54-2.21-0.67-3.28c-0.28-2.11-0.27-4.35,0.02-6.65
					c0.09-0.73,0.22-1.52,0.42-2.49l0.11-0.54l-0.45-0.32c-0.14-0.1-0.28-0.19-0.41-0.29c-0.19-0.14-0.39-0.28-0.58-0.41
					c-1.21-0.83-2.51-1.64-3.87-2.41c-2.63-1.5-5.41-2.81-8.26-3.88c-2.8-1.06-5.75-1.9-8.76-2.5c-0.08-0.02-0.16-0.03-0.24-0.04
					l-2.48-0.46l1.5,1.81c0.77,0.93,1.49,1.78,2.18,2.58l7,8.08l-4.02-1.3l-6.22-2.01l-1.56-0.47l-0.47-0.14
					c-0.68-0.19-1.41-0.38-2.15-0.57c-1.44-0.36-2.91-0.69-4.37-0.98c-2.91-0.58-5.89-1.03-8.88-1.34c-3.06-0.32-6.1-0.49-9.09-0.51
					c-2.99-0.02-5.93,0.12-8.79,0.4c-2.3,0.23-4.55,0.56-6.75,0.99c-3.66,0.71-7.18,1.7-10.51,2.95c-2.45,0.92-4.89,2.03-7.25,3.31
					l-2.12,1.15l2.37,0.44c0.64,0.12,1.26,0.24,1.87,0.35c1.83,0.35,3.55,0.69,5.22,1.04l12.04,2.35l-12,3.48l-1.72,0.54
					c-0.57,0.2-1.17,0.41-1.82,0.66c-1.22,0.47-2.44,0.97-3.61,1.5c-2.26,1.02-4.6,2.24-6.97,3.62c-0.57,0.33-1.13,0.67-1.69,1.02
					c-3.9,2.43-7.57,5.22-10.92,8.3c-3.87,3.54-7.34,7.5-10.31,11.75c-0.36,0.52-0.72,1.05-1.07,1.59
					c-2.46,3.75-4.64,7.81-6.47,12.12c-1.98,4.66-3.57,9.71-4.72,15.02l-0.4,1.94l-1.12,6.01c-0.45,2.61-0.92,5.31-1.31,7.97
					c-0.34,2.25-0.63,4.45-0.89,6.6c-1.1,9.31-1.43,17.67-0.99,25.41c0.1,1.88,0.25,3.74,0.45,5.57c0.38,3.49,0.93,6.88,1.66,10.12
					c0.78,3.39,1.76,6.6,2.9,9.6c0.69,1.8,1.44,3.53,2.25,5.17c2.29,4.69,5.15,9.12,8.48,13.17c3.28,4.02,7.08,7.69,11.31,10.91
					c1.48,1.13,3.02,2.22,4.62,3.25c1.07,0.69,2.16,1.36,3.27,2c0.56,0.32,1.12,0.64,1.69,0.95c5.71,3.12,12.04,5.67,18.92,7.64
					c1.24,0.35,2.48,0.68,3.74,1.01c3.77,0.98,7.67,1.86,11.88,2.81l7.94,1.76l1.24,0.28c0.98,0.22,1.98,0.45,2.99,0.69
					c-1.36,0.18-2.79,0.33-4.32,0.43c-0.36,0.02-0.71,0.04-1.07,0.05c-2.43,0.12-4.85,0.13-7.21,0.01
					c-2.98-0.14-6.01-0.47-9.05-0.99c-2.45-0.41-4.9-0.94-7.36-1.58c-4.89-1.27-9.59-2.84-14-4.7c-0.63-0.27-1.25-0.54-1.87-0.81
					c-2.11-0.94-4.22-1.99-6.28-3.13l-0.6-0.33l-0.89,1.02c-0.85,0.99-1.66,1.99-2.42,2.98c-1.49,1.92-2.99,4.05-4.47,6.31
					c-1.54,2.37-2.85,4.55-4,6.64c-0.43,0.74-0.83,1.51-1.21,2.25c-0.21,0.39-0.41,0.79-0.64,1.21c-0.2,0.41-0.4,0.81-0.6,1.21
					c-0.37,0.74-0.75,1.51-1.1,2.27c-0.28,0.6-0.56,1.2-0.83,1.8c-1.89,4.22-3.54,8.47-4.9,12.66c-1.54,4.7-2.87,9.77-3.95,15.08
					c-1.01,4.95-1.78,10.15-2.3,15.46l-0.32,3.9l-0.2,3.87c-0.07,0.96-0.07,1.87-0.07,2.74c0,0.36,0,0.72-0.01,1.07
					c-0.03,0.89,0.02,1.76,0.07,2.6c0.02,0.39,0.05,0.79,0.07,1.21c0.34,5.16,1.35,10.1,3.01,14.7c1.69,4.66,4.06,9.12,7.05,13.26
					c0.13,0.17,0.25,0.35,0.38,0.53c0.23,0.33,0.48,0.68,0.75,1l0.58,0.71l0.58,0.71c0.54,0.71,1.14,1.36,1.72,1.99
					c0.26,0.29,0.53,0.57,0.78,0.86c0.41,0.47,0.86,0.91,1.29,1.33l1.4,1.39c0.58,0.55,1.18,1.09,1.77,1.6
					c0.35,0.31,0.7,0.62,1.06,0.95c3.76,3.19,8.02,6.1,12.67,8.65c1.64,0.9,3.34,1.76,5.08,2.57c2.91,1.36,5.95,2.59,9.09,3.69
					c5.1,1.72,10.15,3.1,15.03,4.09c4.24,0.85,8.64,1.48,13.11,1.9c0.8,0.07,1.6,0.15,2.41,0.21l2.95,0.2l4.91,0.16l3.89-0.01
					c0.61,0.01,1.23-0.02,1.82-0.04l2.14-0.08c4.19-0.19,8.12-0.52,11.9-1c1.26-0.16,2.5-0.34,3.74-0.53
					c0.39-0.05,0.78-0.11,1.17-0.16c0.88-0.12,1.79-0.25,2.7-0.33c0.41-0.04,0.82-0.07,1.23-0.1c0.24-0.02,0.48-0.04,0.73-0.06
					c0.49-0.05,0.98-0.08,1.47-0.11l0.47-0.03c0.98-0.06,1.97-0.06,3.01-0.06c0.33,0,0.67,0,0.98,0c0.61,0.01,1.28,0.03,1.98,0.07
					c-1.58,1.07-3.34,1.99-5.32,2.79l-0.45,0.18c-0.48,0.19-0.96,0.38-1.44,0.56c-0.63,0.22-1.28,0.41-1.9,0.59
					c-1.26,0.35-2.57,0.71-3.89,0.94l-4.01,0.68c-0.62,0.09-1.24,0.18-1.86,0.26l-0.89,0.12l0.17,0.88
					c0.79,4.21,2.43,12.32,4.79,21.03c0.16,0.58,0.32,1.16,0.48,1.75c1.54,5.52,3.03,10.03,4.44,13.71
					c4.23,11.05,7.74,14.69,9.72,15.87c3.58,2.13,7.89,3.27,12.33,3.52c0.63,0.04,1.27,0.05,1.91,0.05c8.14,0,16.43-2.9,21.22-8.02
					c0.68-0.73,1.3-1.51,1.83-2.33c5.13-7.96,13.51-64.46,17.68-98.83l4.49,0.54l-3.86-2.12c-0.76-0.42-1.5-0.86-2.21-1.31
					c-3.79-2.44-7.41-5.53-11.09-9.47c-3.08-3.3-6.01-6.97-8.95-11.2c-2.62-3.78-5.13-7.86-7.46-12.13
					c-2.26-4.15-4.33-8.46-6.16-12.81c-0.86-2.03-1.5-3.95-1.93-5.86c-0.06-0.27-0.12-0.54-0.17-0.82c-0.24-1.18-0.4-2.35-0.47-3.48
					c-0.03-0.48-0.05-0.93-0.05-1.36c0.22,0.32,0.44,0.64,0.64,0.95l0.12,0.17c0.15,0.22,0.29,0.45,0.44,0.69
					c0.44,0.7,0.89,1.46,1.35,2.29c1.02,1.81,1.99,3.75,3.04,6.12c1.9,4.19,4.05,8.33,6.37,12.3c2.39,4.08,4.94,7.96,7.59,11.55
					c2.95,3.98,5.85,7.4,8.88,10.46c3.59,3.61,7,6.37,10.41,8.46c1.9,1.16,3.86,2.1,5.85,2.8c1.17,0.39,2.13,0.64,3.01,0.8
					c0.93,0.19,1.92,0.28,3.04,0.3c0.09,0,0.18,0,0.26,0c3.76,0,7.46-1.52,10.69-4.38c0.26-0.22,0.5-0.45,0.74-0.68
					c0.13-0.13,0.27-0.26,0.4-0.38l0.03-0.03c0.22-0.22,0.43-0.45,0.65-0.68c0.14-0.15,0.28-0.3,0.42-0.45l1.04-1.24l0.9-1.24
					c0.27-0.41,0.53-0.83,0.77-1.27c0.72-1.31,1.28-2.74,1.68-4.26c0.24-0.91,0.42-1.86,0.54-2.85c0.38-2.96,0.25-6.26-0.38-9.85
					c-0.36-2.06-0.86-4.18-1.54-6.48c-0.61-2.03-1.34-4.12-2.22-6.38c-2.93-7.5-6.94-15.24-12.63-24.37
					c-4.54-7.3-9.72-14.75-15.83-22.8c-2.75-3.63-5.65-7.31-8.61-10.93c-1.56-1.92-3.01-3.67-4.44-5.36c-0.5-0.59-1-1.18-1.51-1.77
					l-0.51-0.6l-0.64,0.47c-1.69,1.23-3.27,2.31-4.84,3.27c-0.48,0.3-0.96,0.59-1.45,0.87c-3.39,1.99-6.85,3.7-10.31,5.07
					c-0.71,0.3-1.46,0.56-2.19,0.82c-0.29,0.1-0.58,0.21-0.88,0.31c-0.33,0.1-0.65,0.21-0.98,0.31c-0.73,0.23-1.42,0.46-2.17,0.64
					c-0.51,0.15-1.04,0.28-1.58,0.41c2.49-1.46,4.72-2.87,6.85-4.32c3.52-2.37,6.99-4.91,10.29-7.54c0.92-0.72,1.79-1.44,2.45-1.99
					c0.23-0.19,0.46-0.38,0.68-0.58c0.17-0.14,0.34-0.29,0.52-0.44l0.12-0.1c0.35-0.31,0.71-0.62,1.05-0.98
					c0.48-0.48,0.97-0.95,1.45-1.42c1-0.97,2.03-1.97,3-3.01c2.97-3.13,5.68-6.36,8.06-9.6c4.86-6.61,8.94-13.92,12.14-21.73
					c0.1-0.25,0.2-0.5,0.3-0.75c1.46-3.64,2.72-7.35,3.75-11.03c0.61-2.18,1.1-4.16,1.51-6.04c0.14-0.64,0.26-1.28,0.39-1.92
					l0.17-0.88h0l0,0l-0.89-0.13c-0.35-0.05-0.71-0.1-1.06-0.16c-1.99-0.35-3.73-0.77-5.32-1.29c0.97-0.2,1.93-0.38,2.88-0.55
					c0.82-0.15,1.63-0.31,2.43-0.47c1.89-0.36,4.01-0.77,6.14-1.22c0.56-0.12,1.12-0.24,1.67-0.36c0.94-0.21,1.89-0.43,2.84-0.66
					c1.59-0.38,3.18-0.78,4.74-1.26c2.46-0.74,4.91-1.64,7.28-2.67c4.11-1.78,8.04-3.98,11.71-6.55c0.52-0.37,1.04-0.74,1.56-1.13
					c2.09-1.57,4.06-3.22,5.85-4.92c1.08-1.03,1.93-1.88,2.68-2.69c0.42-0.45,0.83-0.91,1.25-1.39c0.21-0.23,0.41-0.47,0.6-0.71
					l0.15-0.18l3.89,1.03l2.06,0.55l0.08,1.79l1.42-1.81c1.04-1.33,2.04-2.68,2.99-4.03c1.58-2.25,3.03-4.52,4.32-6.78
					c3.85-6.78,6.51-13.8,7.92-20.88C312.39,170.82,312.54,163.35,311.36,155.96z"/>
			</g>
		</g>
		<g>
			<path class="st2" d="M209.32,155.32c0,0,5.62,38.72,26.45,52.35c0,0,34.46-4.26,44.26-28.11c9.8-23.85,8.52-40.04,2.56-48.56
				s-41.32-7.67-56.23,5.54C211.45,149.74,209.32,155.32,209.32,155.32z"/>
		</g>
		<g>
			<path class="st3" d="M155.22,451.75c9.34-23.78,16.18-51.47,12.6-77.17c-3.69-26.45-23.87-42.62-50.59-41.86
				c-22.59,0.64-40.1,16.35-43.51,38.66c-3.61,23.63,0.03,48.75,9.94,70.58C83.66,441.95,136.05,461.97,155.22,451.75z"/>
		</g>
		<g>
			<path class="st4" d="M199.11,359.18c0,0,11.67,48.68,34.58,60.19l2.04-15.98C235.73,403.39,210.19,374.38,199.11,359.18z"/>
		</g>
		<g>
			<g>
				<path class="st0" d="M191,306.94c0,0,22.46-5.72,52.34,18l-25.43-35.06L191,306.94z"/>
			</g>
			<g>
				<path class="st0" d="M112.89,318.32c0,0-29.28-7.09-52.89,22.49l22.38-36.95L112.89,318.32z"/>
			</g>
			<g>
				<path class="st0" d="M64.92,433c0,0,24.73,41.15,65.61,40.81l6.7-18.77c0,0-54.63,0.87-72.84-25.07"/>
			</g>
			<g>
				<path class="st0" d="M158.86,473.82c0,0,8.43-13.41,19.01-23.7l-23,4.93"/>
			</g>
			<g>
				<path class="st0" d="M32.55,207.67c0,0,19.97-52.77,56.84-60.46c0,0-32.86,9.35-41.87,76.65
					C47.52,223.86,43.93,234.97,32.55,207.67z"/>
			</g>
			<g>
				<path class="st0" d="M233.49,232.8c0,0,3.64,28.48-10.9,47.89c0,0,20.34-23.3,25.69-47.52"/>
			</g>
		</g>
		<g>
			<path class="st5" d="M226.83,191.66c0,0-3.62-53.01,43.96-61.1c0,0-25.69-11.07-44.43,5.97s-15.44,20.87-15.44,20.87
				S211.11,184.17,226.83,191.66z"/>
		</g>
		<g>
			<path class="st2" d="M241.1,402.68l-17.14,9.86c-2.96,1.71-6.77,0.68-8.48-2.27l-17.51-30.32c-1.71-2.96-0.68-6.77,2.27-8.48
				l5.75-3.32C206,368.15,213.58,393.87,241.1,402.68z"/>
		</g>
		<g>
			<path class="st2" d="M253.34,340.81c0,0,15.84,17.27,13.64,45.9c0,0,20.7-9.91,20.26-11.56s-8.7-19.48-8.7-19.48L265.9,335.9
				L253.34,340.81z"/>
		</g>
		<g>
			<g>
				<g>
					<path class="st4" d="M136.63,241.14c-1.85-14.47-9.03-23.22-20.22-24.65c-0.25-0.03-0.51-0.06-0.76-0.08l0,0
						c-14.07-1.33-23.63,10.46-27.55,20.97c-5.41,14.5-5.86,26.01-1.34,34.2c3.35,6.07,9.25,10.03,17.53,11.76
						c3.78,0.79,7.22,1.18,10.33,1.18c6.64,0,11.81-1.8,15.65-5.42C137.33,272.44,139.41,260.02,136.63,241.14z"/>
				</g>
				<g>
					<g>
						<path class="st4" d="M166.72,231.95c-3.76,0-6.82-3.06-6.82-6.82c0-3.76,3.06-6.82,6.82-6.82s6.82,3.06,6.82,6.82
							C173.54,228.89,170.48,231.95,166.72,231.95z"/>
					</g>
				</g>
				<g>
					<g>
						<path class="st4" d="M70.46,223.86c-3.76,0-6.82-3.06-6.82-6.82s3.06-6.82,6.82-6.82s6.82,3.06,6.82,6.82
							S74.21,223.86,70.46,223.86z"/>
					</g>
				</g>
				<g>
					<g>
						<path class="st4" d="M171.83,183.82c0.71-0.5,1.51-0.77,2.31-0.95c0.81-0.17,1.64-0.22,2.47-0.17
							c1.66,0.11,3.32,0.69,4.75,1.66c1.42,0.98,2.58,2.36,3.25,3.92c0.65,1.56,0.88,3.25,0.44,4.91c-1.27-1.15-2.24-2.16-3.21-3.03
							c-0.98-0.86-1.9-1.6-2.88-2.28c-0.99-0.68-2.03-1.3-3.2-1.95C174.57,185.27,173.32,184.64,171.83,183.82z"/>
					</g>
				</g>
				<g>
					<g>
						<path class="st4" d="M83.66,179.13c-1.48,0.82-2.73,1.45-3.91,2.1c-1.17,0.65-2.21,1.27-3.2,1.95
							c-0.99,0.68-1.91,1.42-2.88,2.28c-0.98,0.87-1.94,1.88-3.21,3.03c-0.45-1.66-0.21-3.34,0.44-4.91
							c0.66-1.56,1.82-2.94,3.25-3.92c1.43-0.97,3.09-1.56,4.75-1.66c0.83-0.06,1.66-0.01,2.47,0.17
							C82.15,178.36,82.95,178.63,83.66,179.13z"/>
					</g>
				</g>
				<g>
					<g>
						<path class="st4" d="M315.12,142.92c-0.21-0.61-0.43-1.22-0.66-1.82l1.53,0.66l8.19,3.53l-3.07-8.36
							c-2.7-7.36-6.24-14.52-10.93-20.99c-4.65-6.48-10.52-12.21-17.31-16.58c-3.4-2.18-7-4.03-10.74-5.51
							c-3.75-1.48-7.62-2.59-11.55-3.36c-3.93-0.77-7.92-1.18-11.92-1.27c-0.96-0.02-1.91-0.02-2.87,0l0.78-0.99l0,0l5.13-6.07
							l-8.21-0.13c-8.93-0.15-17.97,0.67-26.84,2.85l-1.66,0.42c-0.55,0.15-1.1,0.31-1.65,0.47c-1.1,0.31-2.19,0.67-3.28,1.03
							c-0.55,0.17-1.08,0.38-1.63,0.57c-0.54,0.2-1.08,0.38-1.62,0.6c-1.07,0.44-2.14,0.86-3.19,1.35c-1.06,0.46-2.1,0.98-3.14,1.49
							c-0.52,0.26-1.03,0.55-1.54,0.82c-0.51,0.27-1.02,0.56-1.52,0.86c-2.01,1.17-3.96,2.46-5.83,3.87
							c-7.51,5.59-13.49,13.3-17.04,21.87c-0.4,0.96-0.77,1.94-1.12,2.92c-1.03-0.67-2.07-1.3-3.13-1.91
							c-2.96-1.69-6.05-3.14-9.24-4.34c-3.19-1.2-6.48-2.14-9.84-2.81c-3.36-0.65-6.78-1.02-10.21-1.1l-7.26-0.17l3.93,6.03
							l0.27,0.42l0.24,0.36l0.44,0.63c-0.92-0.17-1.83-0.32-2.75-0.46c-1.47-3.1-6.32-12.33-15.35-20.7
							c-10.1-9.37-27.46-19.35-52.85-13.71l-6.43,1.43l5.26,5.81c-6.38,0.24-15.37,1.31-24.77,4.76
							c-16.23,5.96-36.65,20.35-41.77,55.08l-1.22,8.25l8.33-5.26c-0.88,5.64-1.61,13.48-1.02,22.32
							c1.51,22.52,11,41.14,27.47,54.01c-0.2,4.83-0.19,9.69,0.12,14.56c0.36,5.66,1.19,11.32,2.54,16.9
							c1.38,5.57,3.31,11.06,5.96,16.23c2.63,5.15,5.84,9.97,9.59,14.36c3.76,4.38,8.05,8.29,12.69,11.65
							c0.53,0.39,1.07,0.76,1.61,1.13c-12.01,12.01-48.63,51.34-43.8,79.68c1.61,9.45,7.48,16.74,17.46,21.7
							c0.34,1.13,0.7,2.25,1.11,3.35c2,5.38,4.77,10.46,8.15,15.06c0.23,0.31,0.45,0.62,0.68,0.93c0.4,2.32,0.82,4.77,1.25,7.31
							c6.14,35.96,11.56,66.32,15.84,73.6c3.63,6.17,10.37,10.8,18.5,12.71c2.72,0.64,5.44,0.95,8.11,0.95
							c6.02,0,11.77-1.59,16.47-4.66c5.82-3.8,10.99-14.81,15.78-33.66c2.47-9.72,4.15-18.82,4.9-23.22l0.06,0l4.09-0.11
							c0.68-0.01,1.36-0.06,2.04-0.1l2.04-0.13c0.68-0.05,1.36-0.08,2.04-0.14l0.63-0.06c0.76,4.13,2.64,13.64,5.49,23.84
							c5.26,18.87,10.91,29.88,17.26,33.66c5.25,3.13,11.52,4.59,17.82,4.59c11.51,0,23.11-4.9,28.67-13.54
							c1.27-1.96,5.12-7.93,12.49-56.31c2.98-19.58,5.36-38.38,6.09-44.32c0.68,0.2,1.37,0.38,2.07,0.52
							c1.32,0.29,2.69,0.44,4.07,0.49c1.39,0.06,2.79-0.07,4.17-0.28c1.38-0.25,2.75-0.61,4.05-1.12c2.62-0.99,4.95-2.5,7-4.21
							c0.52-0.42,0.99-0.89,1.48-1.33c0.47-0.46,0.92-0.93,1.38-1.4l1.28-1.46c0.42-0.55,0.85-1.09,1.25-1.65
							c1.57-2.28,2.72-4.84,3.44-7.45c0.72-2.62,1.04-5.27,1.09-7.88c0.05-2.61-0.19-5.15-0.58-7.64c-0.4-2.49-0.95-4.92-1.62-7.3
							c-0.68-2.37-1.46-4.69-2.31-6.98c-3.49-9.1-8.08-17.53-13.06-25.65c-5.02-8.1-10.49-15.85-16.25-23.36
							c-2.89-3.75-5.85-7.44-8.87-11.07c-1.52-1.81-3.06-3.61-4.61-5.39c-0.46-0.52-0.91-1.04-1.37-1.56
							c3.32-2.95,6.41-6.16,9.25-9.59c5.77-6.95,10.46-14.83,13.86-23.2c1.71-4.19,3.09-8.5,4.14-12.91
							c0.52-2.2,0.94-4.43,1.27-6.68c0.14-0.98,0.27-1.96,0.36-2.96c1.2-0.05,2.39-0.15,3.58-0.28c1.42-0.19,2.84-0.4,4.25-0.67
							c1.41-0.26,2.82-0.59,4.21-0.97c1.39-0.37,2.78-0.79,4.14-1.28c5.47-1.9,10.69-4.64,15.36-8.14c1.91-1.42,3.72-2.99,5.43-4.67
							l0.37,8.7l6.23-6.61c5.52-5.85,10.49-12.31,14.53-19.4c4.02-7.08,7.07-14.82,8.68-22.91c1.62-8.08,1.79-16.46,0.5-24.6
							C317.45,150.83,316.45,146.82,315.12,142.92z M23.77,175.51c-1.13-16.1,2.61-28.91,2.65-29.03l2.93-9.8l-10.07,6.36
							c5.03-20.05,16.74-33.61,34.89-40.36c15.69-5.84,30.61-4.22,30.75-4.21l10.13,1.18l-8.96-9.91
							c14.89-1.67,28.01,2.62,39.07,12.79c5.43,5,9.22,10.43,11.51,14.26c-4.99-0.31-10.02-0.26-15.03,0.24
							c-6.43,0.64-12.84,2.04-18.97,4.34c-6.13,2.3-11.94,5.54-17.11,9.59l-7.1,5.57l8.97,1.24c1.02,0.14,2.1,0.31,3.17,0.48
							c-1.05,0.53-2.09,1.07-3.11,1.64c-5.01,2.83-9.74,6.19-14.05,10.02c-4.3,3.85-8.18,8.19-11.54,12.9
							c-3.35,4.71-6.19,9.79-8.43,15.09c-2.26,5.3-3.95,10.81-5.17,16.4l-0.43,2.09l-0.39,2.04l-0.75,4.09
							c-0.49,2.73-0.92,5.47-1.31,8.23c-0.45,3.17-0.84,6.36-1.15,9.56C31.95,209.06,25.07,194.02,23.77,175.51z M39.87,383.02
							c-1.79-10.49,3.61-24.99,15.64-42.21c-2.22,6.14-3.99,12.44-5.31,18.83c-1.1,5.38-1.89,10.82-2.42,16.28l-0.34,4.1l-0.22,4.1
							c-0.1,1.34-0.07,2.8-0.08,4.22c-0.04,1.42,0.09,2.85,0.16,4.27c0.08,1.03,0.19,2.05,0.31,3.08
							C43.29,392.29,40.73,388.11,39.87,383.02z M115.7,508.83c-4.97,3.24-11.94,4.24-18.64,2.67c-6.1-1.43-11.08-4.76-13.65-9.13
							c-3.71-6.3-10.06-42.7-14.21-66.98c0.51,0.44,1.02,0.87,1.53,1.32c4.36,3.57,9.09,6.63,14.02,9.23
							c9.87,5.19,20.52,8.55,31.34,10.47c5.41,0.94,10.87,1.52,16.34,1.79l0.38,0.02c-0.81,4.62-2.39,12.91-4.59,21.54
							C122.46,502.38,117.54,507.63,115.7,508.83z M310.08,177.99c-1.43,7.21-4.16,14.16-7.83,20.62c-2.13,3.73-4.57,7.3-7.24,10.71
							l0-0.11l-7.08-1.88l0,0c0-0.01-0.06,0.06-0.09,0.11l-0.13,0.16l-0.28,0.33c-0.19,0.23-0.38,0.46-0.58,0.68
							c-0.4,0.45-0.81,0.92-1.24,1.37c-0.85,0.91-1.74,1.79-2.65,2.65c-1.82,1.73-3.75,3.34-5.77,4.85
							c-4.04,3.01-8.43,5.56-13.09,7.58c-2.33,1.01-4.73,1.89-7.19,2.63c-2.46,0.76-4.97,1.33-7.52,1.9
							c-2.55,0.57-5.14,1.07-7.78,1.58c-2.65,0.52-5.34,0.97-8.13,1.63c2.62,1.16,5.36,1.86,8.15,2.35
							c0.36,0.06,0.72,0.12,1.08,0.17c-0.12,0.63-0.25,1.27-0.38,1.9c-0.44,2.01-0.95,4-1.5,5.99c-1.11,3.97-2.46,7.88-4.02,11.69
							c-3.12,7.63-7.14,14.89-12.04,21.55c-2.44,3.34-5.12,6.5-7.99,9.52c-1.43,1.51-2.95,2.93-4.44,4.4
							c-0.37,0.38-0.75,0.71-1.13,1.05c-0.4,0.33-0.78,0.67-1.18,1c-0.8,0.67-1.61,1.33-2.44,1.98c-3.29,2.62-6.71,5.13-10.24,7.5
							c-3.53,2.4-7.2,4.58-11.06,6.71c2.18-0.27,4.37-0.66,6.5-1.27c1.08-0.27,2.12-0.64,3.18-0.96c1.04-0.38,2.1-0.73,3.12-1.15
							c4.12-1.64,8.09-3.67,11.88-6.01c1.66-1.02,3.29-2.13,4.9-3.31c0.5,0.59,1.01,1.18,1.5,1.77c1.49,1.77,2.97,3.55,4.43,5.35
							c2.93,3.58,5.8,7.22,8.59,10.91c5.6,7.37,10.93,14.93,15.79,22.73c4.86,7.79,9.29,15.85,12.56,24.23
							c0.81,2.09,1.56,4.2,2.2,6.31c0.62,2.12,1.14,4.25,1.51,6.38c0.75,4.25,0.85,8.52-0.15,12.33c-0.5,1.9-1.27,3.68-2.33,5.27
							l-0.85,1.16l-1,1.2c-0.35,0.37-0.7,0.76-1.06,1.12c-0.37,0.34-0.72,0.72-1.11,1.04c-3.01,2.67-6.57,4.25-10.4,4.18
							c-0.95-0.01-1.92-0.09-2.89-0.29c-0.97-0.17-1.94-0.44-2.91-0.77c-1.93-0.67-3.84-1.59-5.67-2.72
							c-3.67-2.25-7.08-5.16-10.25-8.34c-3.17-3.19-6.09-6.69-8.8-10.36c-2.71-3.67-5.22-7.51-7.54-11.47
							c-2.32-3.96-4.43-8.05-6.33-12.23c-0.93-2.1-1.93-4.16-3.08-6.19c-0.57-1.02-1.17-2.02-1.82-3.03c-0.33-0.5-0.66-1-1.02-1.5
							c-0.35-0.5-0.73-0.99-1.15-1.48c-0.18,1.27-0.17,2.51-0.1,3.73c0.08,1.22,0.25,2.42,0.49,3.6c0.47,2.36,1.22,4.64,2.16,6.84
							c1.84,4.4,3.91,8.7,6.19,12.89c2.28,4.19,4.78,8.27,7.51,12.21c2.74,3.94,5.71,7.74,9.03,11.3c3.32,3.55,7,6.87,11.25,9.61
							c0.73,0.47,1.48,0.92,2.26,1.34l-1.15-0.92c-4.12,34.2-12.37,92.21-17.47,100.11c-6.35,9.84-24.92,13.19-36.13,6.51
							c-2.04-1.21-7.47-6.48-13.78-29.08c-2.63-9.42-4.45-18.45-5.25-22.71c0.63-0.08,1.25-0.17,1.88-0.26l4.03-0.68
							c1.34-0.24,2.66-0.6,3.97-0.96c0.66-0.19,1.31-0.38,1.96-0.61c0.64-0.23,1.28-0.5,1.92-0.75c2.54-1.04,5-2.37,7.25-4.19
							c-1.46-0.24-2.84-0.3-4.21-0.32c-1.36,0.01-2.72-0.01-4.05,0.07c-0.66,0.05-1.33,0.08-1.98,0.15
							c-0.66,0.06-1.32,0.09-1.97,0.16c-1.31,0.12-2.6,0.33-3.89,0.5c-5.16,0.81-10.36,1.29-15.57,1.53l-1.95,0.07
							c-0.65,0.03-1.3,0.05-1.95,0.05l-3.91,0.01l-3.9-0.13l-0.97-0.03l-0.97-0.07l-1.94-0.14c-5.18-0.39-10.33-1.08-15.41-2.09
							c-5.07-1.03-10.05-2.41-14.92-4.06c-4.85-1.69-9.56-3.75-14.03-6.2c-4.47-2.45-8.69-5.29-12.53-8.55
							c-0.93-0.84-1.89-1.66-2.8-2.52l-1.33-1.32c-0.45-0.44-0.89-0.88-1.3-1.35c-0.83-0.93-1.71-1.82-2.47-2.81L66.88,421
							c-0.4-0.48-0.73-1-1.1-1.5c-2.9-4.02-5.25-8.41-6.93-13.04c-1.67-4.64-2.63-9.52-2.96-14.46c-0.05-1.24-0.18-2.47-0.14-3.72
							c0.02-1.25-0.02-2.46,0.08-3.78l0.2-3.89l0.32-3.88c0.5-5.16,1.25-10.29,2.28-15.36c1.03-5.07,2.32-10.08,3.92-14.99
							c1.6-4.91,3.51-9.7,5.69-14.37c0.53-1.17,1.13-2.31,1.69-3.47c0.61-1.13,1.18-2.29,1.82-3.4c1.23-2.26,2.57-4.45,3.97-6.6
							c1.4-2.15,2.87-4.25,4.43-6.26c0.78-1.01,1.58-1.99,2.4-2.94c0.14-0.16,0.29-0.33,0.43-0.49c2.08,1.14,4.19,2.2,6.35,3.16
							c5.18,2.32,10.55,4.15,16,5.56c5.44,1.43,11,2.34,16.59,2.6c2.79,0.14,5.58,0.11,8.37-0.07c2.78-0.18,5.56-0.51,8.31-1.13
							c-2.72-0.76-5.41-1.34-8.08-1.95l-7.95-1.76c-5.26-1.18-10.46-2.37-15.57-3.81c-10.2-2.91-19.94-7.37-28.22-13.7
							c-4.14-3.15-7.9-6.76-11.17-10.77c-3.28-3.99-6.11-8.37-8.38-13.01c-2.28-4.6-3.92-9.53-5.09-14.59
							c-1.14-5.07-1.81-10.28-2.09-15.54c-0.59-10.53,0.28-21.22,1.87-31.83c0.39-2.66,0.85-5.31,1.31-7.96l0.73-3.98l0.38-1.99
							l0.4-1.93c1.11-5.1,2.64-10.09,4.66-14.86c2.03-4.76,4.51-9.32,7.46-13.55c2.96-4.23,6.38-8.12,10.19-11.61
							c3.8-3.5,7.99-6.59,12.46-9.21c2.24-1.31,4.53-2.51,6.89-3.58c1.18-0.53,2.37-1.03,3.56-1.48c0.6-0.23,1.2-0.44,1.79-0.65
							l0.89-0.29l0.43-0.13l0.36-0.11l15.39-4.46l-15.5-3.02l0,0c-2.36-0.49-4.73-0.95-7.1-1.39c2.3-1.25,4.69-2.34,7.15-3.27
							c5.43-2.04,11.19-3.3,17.04-3.89c5.85-0.58,11.8-0.51,17.71,0.11c2.95,0.31,5.9,0.75,8.81,1.33c1.46,0.29,2.9,0.61,4.33,0.97
							c0.72,0.18,1.43,0.37,2.13,0.56l1.04,0.3l0.51,0.16l0.45,0.15l13.14,4.25l-9-10.38c-0.73-0.85-1.46-1.7-2.17-2.56
							c0.14,0.03,0.27,0.04,0.41,0.07c2.93,0.59,5.81,1.4,8.62,2.46c2.81,1.06,5.54,2.34,8.14,3.82c1.3,0.74,2.58,1.53,3.81,2.37
							c0.33,0.23,0.66,0.46,0.98,0.69c-0.17,0.85-0.32,1.7-0.43,2.55c-0.29,2.27-0.32,4.58-0.02,6.87c0.14,1.14,0.38,2.28,0.69,3.4
							c0.33,1.12,0.73,2.23,1.36,3.27c0.44-1.12,0.81-2.19,1.16-3.25c0.34-1.06,0.68-2.09,0.97-3.12c0.61-2.05,1.15-4.07,1.67-6.07
							c0.96-4.02,2.29-7.93,4.11-11.57c3.58-7.32,8.97-13.56,15.58-18.17c6.59-4.65,14.28-7.77,22.31-9.78
							c2.01-0.51,4.05-0.93,6.09-1.34l3.09-0.53c1.04-0.14,2.07-0.31,3.11-0.43c1.04-0.12,2.08-0.27,3.13-0.38
							c0.35-0.03,0.69-0.07,1.04-0.1l-0.9,1.15l-6.21,7.91l10.01-1.8l0.54-0.1l0.63-0.1c0.42-0.06,0.86-0.12,1.29-0.17
							c0.87-0.1,1.75-0.18,2.63-0.24c1.77-0.12,3.55-0.15,5.34-0.11c3.56,0.08,7.13,0.45,10.61,1.13c3.49,0.68,6.91,1.67,10.2,2.96
							c3.29,1.3,6.44,2.92,9.41,4.82c5.93,3.82,11.09,8.83,15.25,14.63c2.38,3.29,4.45,6.82,6.25,10.5l-2.07-0.89l-11.01-4.75
							l6.28,10.36l0.29,0.47l0.32,0.56c0.21,0.38,0.43,0.78,0.63,1.17c0.41,0.8,0.81,1.62,1.18,2.45c0.75,1.66,1.42,3.37,2.02,5.1
							c1.19,3.47,2.08,7.05,2.66,10.68C311.67,163.35,311.52,170.79,310.08,177.99z"/>
					</g>
					<g>
						<path class="st4" d="M231.88,200.9c-1.75-3.08-3.45-6.15-5.05-9.24c-3.22-6.18-6.14-12.41-8.48-18.79
							c-1.15-3.19-2.17-6.42-3.01-9.68c-0.32-1.38-0.64-2.77-0.91-4.16l0.49-0.74c0.24-0.34,0.46-0.69,0.71-1.03
							c0.48-0.69,0.99-1.37,1.49-2.05c1-1.37,2.09-2.67,3.17-3.98c2.18-2.6,4.54-5.04,7.02-7.31c2.48-2.27,5.11-4.36,7.88-6.19
							c0.71-0.44,1.39-0.92,2.1-1.33l2.15-1.24l2.21-1.11c0.74-0.37,1.51-0.66,2.26-1c3.05-1.24,6.2-2.19,9.45-2.78
							c3.25-0.54,6.57-0.71,9.91-0.6l2.5,0.22c0.42,0.04,0.84,0.07,1.26,0.12l1.25,0.21c0.83,0.14,1.68,0.24,2.52,0.35
							c0.84,0.17,1.68,0.3,2.54,0.44l1.29,0.18c0.43,0.06,0.86,0.16,1.29,0.23c0.86,0.15,1.74,0.29,2.63,0.41
							c0.22,0.03,0.45,0.05,0.67,0.08c0.22,0.04,0.44,0.08,0.66,0.12c0.45,0.07,0.9,0.15,1.35,0.21c0.91,0.12,1.85,0.22,2.83,0.26
							c-0.65-0.7-1.34-1.35-2.06-1.97c-0.36-0.31-0.72-0.61-1.09-0.91c-0.18-0.15-0.37-0.29-0.56-0.44
							c-0.19-0.14-0.39-0.26-0.58-0.4c-0.79-0.51-1.59-1-2.4-1.48c-0.41-0.23-0.82-0.47-1.24-0.69l-1.29-0.58
							c-0.87-0.37-1.74-0.74-2.62-1.08c-0.9-0.29-1.81-0.54-2.73-0.78l-1.38-0.36c-0.47-0.1-0.94-0.17-1.41-0.25
							c-0.94-0.16-1.88-0.33-2.82-0.48c-3.8-0.47-7.68-0.52-11.54-0.15c-3.85,0.46-7.66,1.34-11.3,2.67
							c-0.9,0.35-1.82,0.66-2.71,1.06l-2.64,1.21l-2.55,1.36c-0.85,0.46-1.65,0.98-2.48,1.48c-3.25,2.05-6.28,4.4-9.08,6.97
							c-2.81,2.57-5.35,5.38-7.71,8.32c-0.24,0.3-0.47,0.61-0.7,0.92c-0.02-1.28,0-2.57,0.05-3.87c0.14-3.46,0.68-6.92,1.27-10.55
							c-0.53,0.74-1.02,1.51-1.51,2.29c-0.24,0.39-0.5,0.78-0.71,1.19c-0.21,0.41-0.41,0.82-0.62,1.23
							c-0.2,0.41-0.41,0.83-0.61,1.25c-0.2,0.42-0.4,0.84-0.56,1.28c-0.33,0.86-0.64,1.74-0.96,2.62c-1.11,3.56-1.8,7.29-1.99,11.06
							c-0.04,1.88-0.11,3.78,0.07,5.65c0.07,1.89,0.39,3.74,0.65,5.61c0.65,3.7,1.66,7.33,2.93,10.83l1,2.61l1.12,2.55
							c0.37,0.85,0.8,1.67,1.21,2.5c0.21,0.41,0.41,0.83,0.63,1.24l0.67,1.21c0.45,0.81,0.89,1.61,1.38,2.4
							c0.47,0.79,0.95,1.58,1.46,2.34c0.51,0.76,1,1.54,1.53,2.29l1.61,2.23c2.2,2.93,4.58,5.71,7.15,8.3
							c1.29,1.29,2.62,2.54,4,3.73c1.39,1.18,2.81,2.33,4.35,3.33l-2.72-4.69C233.64,203.98,232.75,202.45,231.88,200.9z"/>
					</g>
					<g>
						<path class="st4" d="M286.3,139.75c-0.31-1.01-0.68-2-1.03-2.98c-0.39-0.98-0.79-1.95-1.21-2.91
							c0.27,8.37,0.27,16.49-1.15,24.21c-0.69,3.86-1.7,7.6-3.08,11.16c-0.69,1.78-1.47,3.52-2.34,5.21
							c-0.42,0.85-0.9,1.68-1.37,2.5l-0.73,1.22l-0.77,1.2c-2.1,3.17-4.54,6.13-7.26,8.87c-1.36,1.37-2.8,2.67-4.28,3.94
							c-1.49,1.25-3.04,2.47-4.64,3.63c-3.19,2.33-6.59,4.45-10.13,6.42c-3.54,1.97-7.21,3.79-11.05,5.46
							c2.11,0,4.21-0.25,6.29-0.59c2.08-0.34,4.15-0.82,6.19-1.4c4.08-1.16,8.07-2.76,11.87-4.78c1.9-1.02,3.76-2.13,5.54-3.36
							c1.8-1.22,3.51-2.57,5.17-4.01c3.29-2.89,6.24-6.24,8.69-9.93c1.23-1.84,2.31-3.79,3.27-5.79c0.95-2,1.78-4.06,2.42-6.18
							c0.64-2.11,1.21-4.25,1.54-6.42c0.1-0.54,0.18-1.08,0.25-1.62c0.07-0.54,0.16-1.08,0.2-1.62c0.09-1.09,0.19-2.17,0.22-3.26
							c0.18-4.34-0.21-8.64-1.03-12.81C287.46,143.81,286.92,141.76,286.3,139.75z"/>
					</g>
				</g>
			</g>
			<g>
				<g>
					<path class="st4" d="M220.89,417.22c-0.88,0-1.76-0.12-2.63-0.35c-2.6-0.7-4.77-2.36-6.11-4.68l-17.51-30.32
						c-2.77-4.8-1.12-10.97,3.68-13.75l5.75-3.32l3.85,6.67l-5.75,3.32c-1.11,0.64-1.5,2.11-0.86,3.22l17.51,30.32
						c0.31,0.54,0.82,0.93,1.43,1.09c0.61,0.16,1.25,0.08,1.78-0.23l17.14-9.86l3.84,6.68l-17.14,9.86
						C224.35,416.77,222.63,417.22,220.89,417.22z"/>
				</g>
				<g>
					<path class="st4" d="M267.35,392.74l-4.06-6.55l18.92-11.73c0.54-0.31,0.93-0.82,1.09-1.43c0.16-0.61,0.08-1.25-0.23-1.78
						l-17.51-30.32c-0.31-0.54-0.82-0.93-1.43-1.09c-0.61-0.17-1.25-0.08-1.79,0.23l-7.08,4.09l-3.85-6.67l7.08-4.09
						c2.32-1.34,5.03-1.69,7.63-1c2.6,0.7,4.77,2.36,6.11,4.68l17.51,30.32c1.34,2.32,1.7,5.03,1,7.63
						c-0.69,2.58-2.33,4.74-4.62,6.08L267.35,392.74z"/>
				</g>
				<g>
					<path class="st4" d="M329.04,506.07c-10.42,0-24.04-1.52-33.45-10.81c-8.86-8.75-9.93-21.5-9.28-30.66
						c1.25-17.33,8.95-32.76,16.41-47.67c3.35-6.7,6.81-13.62,9.53-20.49c1.48-3.73,13.84-36.65-7.63-45.24
						c-8.03-3.21-18.64,0.87-25.29,5.34l-4.3-6.4c8.6-5.79,21.64-10.43,32.45-6.11c21.57,8.63,19.91,35.15,11.93,55.24
						c-2.85,7.17-6.38,14.24-9.8,21.09c-7.12,14.24-14.48,28.97-15.61,44.78c-0.44,6.17-0.12,17.58,7,24.62
						c6.27,6.19,16.07,8.91,30.79,8.55c11.5-0.28,21.82-0.41,31.56-0.42h8.76v7.71h-8.76c-9.68,0-19.94,0.14-31.38,0.41
						C331.04,506.06,330.06,506.07,329.04,506.07z"/>
				</g>
				<g>
					<path class="st4" d="M364.39,508.07h-13.41c-1.09,0-1.98-0.89-1.98-1.98v-9.76c0-1.09,0.89-1.98,1.98-1.98h13.41
						c1.09,0,1.98,0.89,1.98,1.98v9.76C366.37,507.18,365.48,508.07,364.39,508.07z"/>
					<path class="st4" d="M364.19,511.93h-13.01c-3.33,0-6.03-2.71-6.03-6.03v-9.36c0-3.33,2.71-6.03,6.03-6.03h13.01
						c3.33,0,6.03,2.71,6.03,6.03v9.36C370.22,509.22,367.52,511.93,364.19,511.93z M352.85,504.22h9.67v-6.01h-9.67V504.22z"/>
				</g>
				<g>
					<g>
						<line class="st4" x1="363.54" y1="496.81" x2="378.17" y2="496.81"/>
						<path class="st4" d="M378.17,499.01h-14.63c-1.22,0-2.2-0.99-2.2-2.2c0-1.22,0.99-2.2,2.2-2.2h14.63c1.22,0,2.2,0.99,2.2,2.2
							C380.38,498.03,379.39,499.01,378.17,499.01z"/>
					</g>
					<g>
						<line class="st4" x1="363.54" y1="505.62" x2="378.17" y2="505.62"/>
						<path class="st4" d="M378.17,507.82h-14.63c-1.22,0-2.2-0.99-2.2-2.2s0.99-2.2,2.2-2.2h14.63c1.22,0,2.2,0.99,2.2,2.2
							S379.39,507.82,378.17,507.82z"/>
					</g>
				</g>
				<g>
					<circle class="st4" cx="224.04" cy="396.62" r="1.65"/>
					<path class="st4" d="M224.04,402.13c-3.04,0-5.5-2.47-5.5-5.5c0-3.04,2.47-5.5,5.5-5.5c3.04,0,5.5,2.47,5.5,5.5
						C229.54,399.66,227.07,402.13,224.04,402.13z M224.04,394.42c-1.21,0-2.2,0.99-2.2,2.2c0,1.21,0.99,2.2,2.2,2.2
						c1.21,0,2.2-0.99,2.2-2.2C226.24,395.41,225.25,394.42,224.04,394.42z"/>
				</g>
				<g>
					<polyline class="st4" points="276.33,346.53 282.94,343.22 289.54,354.23 281.84,358.64 					"/>
					<path class="st4" d="M281.84,360.29c-0.57,0-1.13-0.3-1.44-0.83c-0.45-0.79-0.18-1.8,0.61-2.25l6.24-3.57l-4.95-8.25
						l-5.24,2.62c-0.82,0.41-1.81,0.08-2.22-0.74c-0.41-0.82-0.08-1.81,0.74-2.22l6.61-3.3c0.77-0.39,1.71-0.11,2.15,0.63
						l6.61,11.01c0.23,0.38,0.29,0.84,0.18,1.27c-0.11,0.43-0.39,0.8-0.78,1.02l-7.71,4.4C282.4,360.22,282.12,360.29,281.84,360.29
						z"/>
				</g>
			</g>
		</g>
		<g>
			<g>
				<path class="st6" d="M126.79,245.48c-1.2,0-2.23-0.92-2.33-2.14c-0.8-9.48-5.69-12.97-5.9-13.12c-1.08-0.72-1.36-2.16-0.65-3.24
					c0.72-1.08,2.18-1.36,3.26-0.65c0.28,0.19,6.95,4.74,7.95,16.61c0.11,1.29-0.85,2.42-2.14,2.53
					C126.92,245.48,126.86,245.48,126.79,245.48z"/>
			</g>
		</g>
		<g>
			<circle class="st6" cx="70.46" cy="214.91" r="2.56"/>
		</g>
		<g>
			<g>
				<circle class="st6" cx="166.3" cy="223.01" r="2.56"/>
			</g>
		</g>
	</g>
	<g>
		<path class="st7" d="M184.53,44.07l1.39-11.42c1.69,0.21,3.31,0.32,4.89,0.34c1.57,0.02,3.06-0.05,4.45-0.19
			c1.39-0.14,2.65-0.45,3.76-0.91c1.11-0.46,2.09-1.07,2.92-1.82c0.83-0.75,1.45-1.66,1.85-2.72c0.4-1.06,0.48-2.08,0.24-3.06
			c-0.24-0.97-0.73-1.84-1.48-2.61c-0.74-0.77-1.73-1.38-2.95-1.84c-1.76-0.66-3.75-0.7-5.98-0.11c-2.23,0.59-4.61,1.99-7.15,4.19
			l-5.66-11.35c3.78-2.77,7.72-4.54,11.81-5.31c4.09-0.77,7.95-0.47,11.57,0.9c3.51,1.33,6.41,3.23,8.7,5.7
			c2.29,2.48,3.79,5.26,4.51,8.36c0.71,3.1,0.49,6.19-0.67,9.28c-0.74,1.97-1.89,3.76-3.44,5.36c-1.55,1.61-3.37,2.97-5.47,4.1
			c-2.1,1.12-4.37,1.95-6.82,2.49c-2.45,0.53-5.01,0.7-7.66,0.48l-1.94,2.73L184.53,44.07z M176.77,55.93
			c0.8-2.13,2.09-3.62,3.87-4.47c1.78-0.85,3.68-0.89,5.7-0.13c2.18,0.82,3.65,2.09,4.4,3.81c0.75,1.71,0.7,3.71-0.17,6
			c-0.78,2.08-2.07,3.54-3.84,4.39c-1.78,0.85-3.71,0.88-5.78,0.1c-2.18-0.82-3.64-2.07-4.38-3.75
			C175.84,60.2,175.91,58.22,176.77,55.93z"/>
	</g>
	<g>
		<path class="st7" d="M152.26,21.65l2.09,11.32c-1.67,0.3-3.26,0.68-4.77,1.14c-1.51,0.45-2.91,0.96-4.19,1.51
			c-1.29,0.55-2.39,1.22-3.32,1.99c-0.93,0.77-1.68,1.64-2.24,2.61c-0.57,0.96-0.88,2.01-0.95,3.15c-0.07,1.14,0.16,2.13,0.68,2.99
			c0.52,0.86,1.25,1.54,2.19,2.05c0.94,0.51,2.06,0.8,3.37,0.88c1.87,0.11,3.79-0.45,5.74-1.68c1.95-1.23,3.81-3.27,5.57-6.14
			l8.79,9.14c-2.78,3.77-6.01,6.64-9.68,8.59c-3.67,1.96-7.44,2.82-11.3,2.6c-3.75-0.22-7.09-1.16-10.01-2.84
			c-2.92-1.68-5.19-3.89-6.8-6.63c-1.61-2.74-2.32-5.76-2.13-9.06c0.12-2.1,0.68-4.15,1.68-6.14c1-1.99,2.33-3.84,3.99-5.54
			c1.67-1.7,3.59-3.17,5.77-4.41c2.18-1.24,4.57-2.16,7.17-2.75l1.04-3.19L152.26,21.65z M156.12,8.02
			c-0.13,2.27-0.92,4.08-2.36,5.42c-1.44,1.34-3.25,1.95-5.41,1.83c-2.33-0.13-4.11-0.91-5.34-2.32c-1.23-1.41-1.78-3.34-1.64-5.78
			c0.13-2.22,0.91-4,2.36-5.34c1.44-1.34,3.27-1.95,5.49-1.82c2.33,0.13,4.1,0.89,5.3,2.27C155.73,3.67,156.26,5.58,156.12,8.02z"/>
	</g>
	<polygon class="st0" points="353.02,175 350.44,160.18 330.59,167.31 331.84,174.47 	"/>
	<polygon class="st0" points="347.16,194.43 350.1,182.89 333.46,181.6 332.03,187.18 	"/>
	<polygon class="st0" points="13.72,72.27 27.78,66.93 31.79,87.63 24.99,90.22 	"/>
	<polygon class="st0" points="0,87.24 8.42,78.81 18.03,92.46 13.96,96.54 	"/>
</g>
</svg>
